<svg width="30" height="20" viewBox="0 0 30 20" fill="none" xmlns="http://www.w3.org/2000/svg">
<path d="M27.2544 8.57383C26.4526 8.41003 25.6449 8.27286 24.8321 8.16633C24.7755 8.15903 24.7186 8.1532 24.6621 8.14627C24.8105 7.33492 24.8076 6.49221 24.6978 5.67065C24.6351 5.17013 24.5231 4.67726 24.3899 4.19097C24.2495 3.70467 24.0835 3.2337 23.8697 2.76309L23.819 2.65109L23.6964 2.6624C23.1842 2.70946 22.6932 2.79556 22.2018 2.9123C21.7133 3.03342 21.2303 3.17971 20.7648 3.37342C20.2985 3.56349 19.8487 3.79661 19.4299 4.07605C19.2216 4.21723 19.0224 4.37155 18.8338 4.53645C18.7765 4.58752 18.7233 4.64224 18.6686 4.69623C18.5314 4.48683 18.3924 4.27889 18.2498 4.0735C17.7821 3.40188 17.2812 2.75579 16.7642 2.12357C16.244 1.49172 15.7139 0.879198 15.1441 0.278717L14.88 0L14.6228 0.285648C14.0675 0.902547 13.5532 1.53185 13.0493 2.17976C12.5485 2.8273 12.0654 3.4898 11.6138 4.17528C11.5128 4.33033 11.4135 4.48647 11.315 4.6437C11.2811 4.61342 11.249 4.58095 11.214 4.5514C11.021 4.39161 10.8178 4.24277 10.6055 4.10743C10.1794 3.83965 9.72335 3.61894 9.25201 3.44164C8.7814 3.2607 8.29438 3.12754 7.80298 3.01992C7.30866 2.91704 6.81543 2.84444 6.30214 2.81125L6.1792 2.80322L6.13141 2.91631C5.93039 3.39239 5.7779 3.86811 5.65058 4.35805C5.53056 4.84763 5.43206 5.34341 5.38354 5.84576C5.29927 6.64032 5.31532 7.45166 5.46927 8.232C5.35837 8.24805 5.24746 8.26301 5.13693 8.28052C4.32704 8.4093 3.52372 8.56872 2.72661 8.75441C1.92803 8.94156 1.1415 9.14658 0.351314 9.3983L0 9.5103L0.137534 9.85396C0.444341 10.6219 0.778875 11.3603 1.1353 12.0968C1.49245 12.8308 1.87149 13.5557 2.28373 14.2631C2.69852 14.9694 3.1425 15.6603 3.63025 16.3254C3.87832 16.6552 4.12931 16.9835 4.40438 17.295C4.53681 17.4545 4.68346 17.6037 4.82355 17.7576C4.97276 17.9046 5.11504 18.0568 5.2741 18.1958C5.58017 18.4832 5.91799 18.7437 6.28171 18.9724C6.46083 19.0906 6.65637 19.1873 6.85009 19.2855C7.04818 19.3679 7.24408 19.4558 7.45093 19.5182C7.85989 19.6517 8.28672 19.7382 8.71756 19.767C9.14877 19.794 9.58217 19.7634 10.0028 19.6838C10.847 19.5237 11.6299 19.1621 12.3296 18.7061C12.6794 18.4759 13.0099 18.2206 13.323 17.9462C13.6349 17.6671 13.9275 17.383 14.2011 17.0481L14.4006 16.804L14.1172 16.6803C13.3879 16.3622 12.6174 16.1408 11.8323 16.0375C11.0473 15.939 10.2501 15.9449 9.47418 16.0707L9.18343 16.1185C9.08712 16.1371 8.99154 16.1594 8.89559 16.1798C8.70297 16.2174 8.51546 16.2743 8.32612 16.3243C8.13897 16.3815 7.95292 16.4425 7.76941 16.5085C7.58774 16.58 7.40351 16.6446 7.22657 16.7274C6.8665 16.8799 6.52613 17.059 6.17263 17.2133C5.95557 17.3089 5.73303 17.3935 5.50575 17.4629C5.44519 17.4016 5.38536 17.3395 5.32408 17.279C5.19311 17.1327 5.05594 16.993 4.93081 16.8405C4.67179 16.5443 4.4332 16.2276 4.19644 15.9098C3.73057 15.2674 3.30265 14.5936 2.90208 13.9026C2.16443 12.6305 1.49974 11.299 0.926988 9.94625C2.33517 9.51431 3.78311 9.1506 5.23798 8.8945C6.02889 8.75952 6.82309 8.64752 7.61984 8.58842C8.22835 8.54756 8.84014 8.53005 9.44427 8.56799C9.44026 8.58185 9.43588 8.59572 9.43186 8.60958C9.37131 8.8095 9.32935 9.01671 9.28339 9.22173C9.24946 9.43041 9.20787 9.63726 9.19437 9.85067C9.1692 10.0612 9.17175 10.2779 9.17285 10.4906C9.18562 10.7014 9.19729 10.9123 9.23304 11.1213C9.29652 11.539 9.39757 11.9538 9.56247 12.3449C9.72444 12.7363 9.93567 13.1066 10.1914 13.4404C10.7062 14.1084 11.3818 14.6272 12.1143 15C12.8494 15.3703 13.6389 15.6205 14.4448 15.7271C14.0478 15.641 13.6633 15.5111 13.2894 15.3601C12.9162 15.2079 12.5528 15.0332 12.211 14.8253C11.5277 14.4119 10.9148 13.8822 10.4774 13.2325C10.2571 12.91 10.0787 12.5616 9.94808 12.1964C9.81419 11.832 9.7405 11.4478 9.70073 11.0622C9.67665 10.8696 9.67738 10.6744 9.67082 10.4803C9.67738 10.2877 9.6803 10.098 9.71058 9.90612C9.72882 9.7146 9.77479 9.52416 9.81164 9.3341C9.86161 9.14512 9.90612 8.95542 9.96996 8.769C9.98601 8.71975 10.0035 8.67087 10.0203 8.62198C10.2089 8.64241 10.3942 8.6767 10.5803 8.70808C10.77 8.75259 10.9633 8.78943 11.1468 8.85181C11.3355 8.90362 11.5113 8.97913 11.6908 9.05319C11.8663 9.13892 12.0447 9.221 12.211 9.32388C12.8881 9.7135 13.4685 10.2677 13.8742 10.9418C14.282 11.6153 14.5108 12.3956 14.6016 13.1909C14.6837 13.9876 14.6538 14.8056 14.4838 15.599C14.7103 14.8194 14.8056 13.9975 14.7662 13.1778C14.7253 12.3591 14.5309 11.5328 14.1317 10.7955C13.9337 10.4271 13.6859 10.0834 13.3981 9.77625C13.111 9.46725 12.7754 9.20714 12.4222 8.97986C12.2471 8.86239 12.0603 8.76681 11.875 8.66758C11.6835 8.57893 11.4887 8.48773 11.288 8.42352C11.0896 8.34801 10.8849 8.30022 10.6821 8.24477C10.5201 8.2112 10.3581 8.17399 10.1954 8.147C10.6923 6.88402 11.4055 5.69144 12.1789 4.55432C13.0085 3.33913 13.9223 2.1637 14.8935 1.06197C15.8923 2.13269 16.8339 3.2793 17.696 4.4664C18.5343 5.62796 19.3092 6.85082 19.8458 8.15794C19.6579 8.19041 19.4722 8.23856 19.2862 8.28234C19.0848 8.34327 18.8816 8.39689 18.6853 8.47788C18.4865 8.5472 18.2943 8.64424 18.1053 8.73799C17.9229 8.84233 17.7386 8.94265 17.5668 9.06487C17.2202 9.30199 16.8916 9.57086 16.6132 9.88788C16.3338 10.2031 16.0959 10.5533 15.908 10.9272C15.5293 11.6755 15.3575 12.5065 15.3393 13.3262C15.3221 14.1471 15.44 14.9657 15.688 15.7391C15.4961 14.9508 15.4436 14.1339 15.5038 13.335C15.5728 12.5375 15.78 11.7513 16.1692 11.0666C16.5563 10.3818 17.121 9.81164 17.7875 9.40378C17.9506 9.29652 18.1268 9.20969 18.3001 9.11886C18.4774 9.04006 18.6514 8.95943 18.8386 8.90252C19.0202 8.83503 19.2125 8.79308 19.4007 8.74347C19.5934 8.70552 19.7845 8.66357 19.9804 8.6384C19.9965 8.63585 20.0125 8.63402 20.0286 8.63183C20.157 8.99227 20.2544 9.36073 20.3146 9.73174C20.3503 9.92181 20.3602 10.1119 20.3748 10.3027C20.3726 10.4953 20.3803 10.6894 20.3602 10.8813C20.3306 11.2658 20.2566 11.647 20.1325 12.0136C20.0071 12.3799 19.8319 12.7294 19.6193 13.0574C19.1957 13.7162 18.6109 14.2722 17.9601 14.7341C17.6336 14.9646 17.2881 15.17 16.931 15.3553C16.5734 15.5396 16.2046 15.707 15.8208 15.8358C16.6077 15.6417 17.3654 15.3203 18.0684 14.8997C18.7689 14.4761 19.4106 13.9311 19.9078 13.2566C20.1552 12.9191 20.3613 12.5485 20.5178 12.1559C20.6721 11.7627 20.7739 11.3482 20.8264 10.9287C20.8574 10.7186 20.8625 10.5077 20.8706 10.2961C20.8629 10.0831 20.8578 9.86855 20.8264 9.65914C20.779 9.28631 20.6976 8.92149 20.5911 8.56653C21.1752 8.51692 21.7676 8.51874 22.3575 8.54209C23.1554 8.5793 23.9529 8.66941 24.7467 8.78286C26.2078 8.99883 27.6652 9.32242 29.0847 9.71569C28.5491 11.0837 27.9213 12.4332 27.219 13.725C26.8374 14.4269 26.4281 15.112 25.9801 15.7668C25.7525 16.0908 25.5223 16.414 25.2717 16.7172C25.1509 16.8733 25.0178 17.0167 24.8908 17.1663C24.8313 17.2286 24.773 17.2921 24.7142 17.3552C24.4851 17.2921 24.2604 17.2137 24.0408 17.1239C23.6836 16.9791 23.3382 16.8098 22.9741 16.6672C22.795 16.5895 22.6093 16.5297 22.4254 16.4633C22.2401 16.4023 22.0526 16.3465 21.8639 16.2944C21.6735 16.2495 21.4842 16.1977 21.2908 16.1656C21.1945 16.1481 21.0982 16.128 21.0015 16.1123L20.7097 16.0725C19.9308 15.9682 19.1337 15.9843 18.3515 16.1039C17.5697 16.2287 16.8055 16.4709 16.0853 16.8091L15.8051 16.9404L16.0113 17.179C16.294 17.5063 16.5942 17.7821 16.9138 18.0528C17.2341 18.3183 17.5716 18.5646 17.9276 18.7849C18.6397 19.2216 19.4321 19.5616 20.2807 19.6984C20.7035 19.7666 21.1376 19.7849 21.5677 19.7462C21.9978 19.7057 22.4221 19.6076 22.8271 19.4628C23.0321 19.3949 23.2254 19.3019 23.4213 19.2136C23.6121 19.1103 23.8051 19.0082 23.981 18.8853C24.3381 18.6467 24.6686 18.3771 24.9667 18.0812C25.1217 17.9378 25.2596 17.7817 25.4048 17.6307C25.5405 17.4731 25.6832 17.3198 25.8112 17.1568C26.0775 16.8376 26.3194 16.5027 26.5584 16.1659C27.0275 15.4878 27.4529 14.7848 27.848 14.0675C28.2405 13.3489 28.5995 12.6141 28.9366 11.8703C29.2726 11.1242 29.5867 10.3771 29.8723 9.60077L30 9.25347L29.6458 9.15096C28.8497 8.92222 28.0577 8.73909 27.2544 8.57383ZM6.204 17.2907C6.57064 17.163 6.92487 17.0006 7.28567 16.8733C8.00472 16.6063 8.75441 16.4334 9.5103 16.352C10.2666 16.2663 11.0301 16.3038 11.7743 16.4224C12.4091 16.5308 13.0267 16.7208 13.6137 16.9766C13.4171 17.1776 13.2037 17.3735 12.987 17.5551C12.6845 17.8058 12.3668 18.0374 12.0348 18.2428C11.3705 18.6518 10.6441 18.9531 9.89372 19.0812C9.51905 19.1457 9.13856 19.1654 8.76243 19.1359C8.38631 19.1041 8.01566 19.0224 7.65851 18.8991C7.47829 18.8422 7.3061 18.7605 7.13172 18.6853C6.96646 18.5967 6.80011 18.5128 6.64287 18.4044C6.32512 18.198 6.02452 17.9553 5.74142 17.689C5.66955 17.6256 5.6006 17.5581 5.53275 17.4895C5.76003 17.437 5.98439 17.3691 6.204 17.2907ZM10.3647 6.30323C10.075 6.87271 9.80908 7.45823 9.60041 8.06929C8.92879 7.99998 8.25571 7.99888 7.58774 8.02515C6.90481 8.05652 6.22589 8.12547 5.55172 8.22069C5.52946 7.93066 5.51888 7.64064 5.52728 7.35098C5.53457 6.85848 5.58528 6.36817 5.66116 5.88333C5.74106 5.39886 5.84357 4.9184 5.97928 4.44707C6.1004 4.01732 6.24231 3.58611 6.41195 3.18044C6.85082 3.20926 7.29881 3.27273 7.73658 3.35409C8.2185 3.43982 8.69275 3.5624 9.16008 3.70686C9.62558 3.85643 10.0827 4.03519 10.5179 4.26101C10.7375 4.37082 10.9473 4.4985 11.1545 4.63203C11.1939 4.65829 11.2318 4.68748 11.2709 4.71484C10.9495 5.23068 10.6445 5.7593 10.3647 6.30323ZM24.5898 8.13788C23.8562 8.04959 23.1174 7.99159 22.3751 7.97772C21.7282 7.97043 21.0778 7.9883 20.4299 8.06856C20.1946 7.40351 19.8881 6.77129 19.5547 6.15877C19.2898 5.6794 19.0045 5.21317 18.7069 4.75606C18.7692 4.70827 18.8309 4.65975 18.8951 4.61451C19.0987 4.47552 19.3048 4.342 19.5211 4.22635C19.9501 3.98886 20.4021 3.7977 20.8633 3.63536C21.3262 3.47812 21.7972 3.34241 22.2766 3.24355C22.7121 3.15016 23.1579 3.07464 23.5961 3.03342C23.777 3.43435 23.9306 3.86154 24.0634 4.28764C24.2119 4.75533 24.3275 5.23287 24.4206 5.71479C24.5096 6.19744 24.5738 6.68592 24.5946 7.17805C24.6135 7.49727 24.6088 7.81721 24.5898 8.13788ZM24.4859 17.5876C24.2101 17.8616 23.9164 18.1122 23.6045 18.3275C23.4505 18.4398 23.2864 18.5285 23.1236 18.6215C22.9515 18.7014 22.7818 18.7878 22.6031 18.8499C22.2492 18.983 21.8811 19.075 21.5061 19.1169C21.131 19.1567 20.7502 19.1476 20.3737 19.0932C19.62 18.9856 18.8856 18.7047 18.2104 18.314C17.8729 18.1177 17.5489 17.8948 17.2396 17.6529C17.0181 17.4774 16.7996 17.2874 16.5972 17.0918C17.1772 16.8201 17.7894 16.6132 18.4208 16.4873C19.1614 16.3483 19.9235 16.2896 20.682 16.3546C21.4397 16.4151 22.1941 16.5676 22.9201 16.8146C23.2842 16.932 23.6428 17.0845 24.0127 17.202C24.2345 17.2746 24.4603 17.3359 24.6891 17.3826C24.623 17.453 24.5559 17.5223 24.4859 17.5876Z" fill="white"/>
</svg>
