<svg width="178" height="292" viewBox="0 0 178 292" fill="none" xmlns="http://www.w3.org/2000/svg">
<path d="M143.014 101.458C142.513 100.904 141.829 100.574 141.089 100.497C140.26 100.411 139.425 100.638 138.697 101.027C137.947 101.427 137.298 101.992 136.689 102.578C136.088 103.158 135.514 103.769 134.973 104.405C133.902 105.663 132.949 107.023 132.133 108.461C131.319 109.899 130.64 111.413 130.108 112.976C130.04 113.175 129.974 113.375 129.912 113.577C129.864 113.727 130.099 113.792 130.147 113.641C130.629 112.114 131.254 110.638 132.014 109.227C132.771 107.821 133.658 106.481 134.66 105.235C135.16 104.614 135.688 104.016 136.244 103.442C136.809 102.859 137.395 102.278 138.05 101.794C138.705 101.311 139.442 100.928 140.254 100.813C141.013 100.704 141.807 100.849 142.425 101.321C143.487 102.129 143.795 103.585 143.96 104.834C143.982 104.997 144.006 105.158 144.024 105.322C144.044 105.487 144.301 105.496 144.29 105.322C144.202 103.989 143.942 102.485 143.014 101.458Z" fill="#F364AB"/>
<path d="M86.2011 54.6365C85.2677 56.2465 84.3491 57.8656 83.4322 59.4866C83.17 59.9487 82.9096 60.4108 82.6474 60.8711C82.5557 61.0343 82.8069 61.181 82.8986 61.0178C83.8136 59.3968 84.7286 57.7758 85.64 56.1511C85.8985 55.6872 86.1553 55.2233 86.412 54.7593C86.4853 54.6218 86.2781 54.5008 86.2011 54.6365Z" fill="#F364AB"/>
<path d="M102.43 39.9794C102.038 41.9286 101.645 43.8797 101.178 45.8124C100.712 47.7396 100.169 49.6522 99.4777 51.5116C98.8542 53.1913 98.106 54.8233 97.1929 56.3654C96.3365 57.8104 95.3408 59.1746 94.1893 60.3996C93.0432 61.6171 91.7431 62.6935 90.3 63.5425C90.1239 63.647 89.9442 63.7479 89.7627 63.8451C89.605 63.9294 89.7462 64.1697 89.902 64.0853C91.3837 63.2858 92.7333 62.2534 93.9252 61.067C95.1208 59.8769 96.1605 58.5347 97.0572 57.1081C97.996 55.6136 98.7717 54.0238 99.4208 52.3826C100.156 50.5232 100.73 48.6033 101.214 46.6633C101.7 44.7159 102.096 42.7483 102.481 40.7789C102.529 40.5314 102.578 40.2838 102.626 40.0344C102.654 39.9042 102.456 39.8492 102.43 39.9794Z" fill="#F364AB"/>
<path d="M107.346 40.5275C106.847 42.6088 106.24 44.6662 105.523 46.6814C104.8 48.7113 103.968 50.7027 103.027 52.641C102.121 54.5095 101.124 56.3396 100.007 58.0907C99.0095 59.6549 97.8928 61.1585 96.5689 62.4641C95.2724 63.7422 93.7615 64.8296 92.0488 65.4732C91.8397 65.5521 91.6289 65.6236 91.4162 65.6896C91.2731 65.7336 91.3336 65.9592 91.4785 65.9152C93.2352 65.3742 94.8104 64.3877 96.1728 63.1628C97.5609 61.914 98.7327 60.4342 99.7705 58.8866C100.918 57.1757 101.929 55.3695 102.857 53.5321C103.832 51.5976 104.701 49.608 105.455 47.5763C106.209 45.5464 106.849 43.4743 107.364 41.371C107.428 41.1088 107.49 40.8466 107.551 40.5844C107.582 40.4523 107.377 40.3936 107.346 40.5275Z" fill="#F364AB"/>
<path d="M67.9286 61.4519C67.5124 59.499 67.3272 57.5021 67.3712 55.5052C67.373 55.386 67.1896 55.386 67.186 55.5052C67.1181 57.5204 67.2978 59.5375 67.7141 61.5106C67.7416 61.6499 67.958 61.5912 67.9286 61.4519Z" fill="#F364AB"/>
<path d="M72.2526 60.6428C71.7172 58.7908 71.3871 56.8837 71.2661 54.9583C71.2313 54.4174 71.2148 53.8746 71.2111 53.3318C71.2111 53.1925 70.9965 53.1925 70.9947 53.3318C70.9635 55.2737 71.1653 57.2156 71.5833 59.1117C71.7025 59.6508 71.8401 60.1844 71.9922 60.7143C72.0399 60.8812 72.3021 60.8097 72.2526 60.6428Z" fill="#F364AB"/>
<path d="M75.2886 55.5017C75.2739 55.3733 75.0704 55.3697 75.0832 55.5017C75.2391 57.0438 75.4133 58.5823 75.5838 60.1226C75.6003 60.2675 75.8277 60.2675 75.8112 60.1226C75.6407 58.5823 75.4756 57.0402 75.2886 55.5017Z" fill="#F364AB"/>
<path d="M79.6493 53.0261C79.2807 54.7865 78.9268 56.5487 78.5711 58.3108C78.4702 58.8114 78.3712 59.3102 78.2703 59.8108C78.2337 59.9979 78.5197 60.0767 78.5564 59.8897C78.9085 58.1256 79.2587 56.3616 79.6071 54.5976C79.7061 54.097 79.7996 53.5946 79.895 53.094C79.9262 52.9344 79.6823 52.8647 79.6493 53.0261Z" fill="#F364AB"/>
<path d="M115.073 103.701C112.23 103.179 109.335 103.006 106.449 103.109C103.564 103.212 100.693 103.582 97.8578 104.121C95.1806 104.631 92.5125 105.278 89.9747 106.288C87.6385 107.218 85.4253 108.452 83.5109 110.092C81.7432 111.606 80.2377 113.46 79.2658 115.582C79.1485 115.838 79.0385 116.099 78.9358 116.363C78.9138 116.42 78.9376 116.462 78.9761 116.484C78.9651 116.484 78.9541 116.482 78.9431 116.482C78.7671 116.467 78.7689 116.741 78.9431 116.755C80.3477 116.871 81.7395 116.7 83.0873 116.339C83.1331 116.394 83.2377 116.414 83.2963 116.337C83.3147 116.313 83.3312 116.288 83.3495 116.264C84.2774 115.998 85.1814 115.644 86.0524 115.235C86.0542 115.336 86.1752 115.422 86.2559 115.327C86.3439 115.22 86.4301 115.114 86.5163 115.006C87.6734 114.426 88.7736 113.75 89.8482 113.033C89.8867 113.049 89.9325 113.046 89.9692 113.009C90.0205 112.958 90.0682 112.903 90.1177 112.851C90.7797 112.404 91.4325 111.942 92.0835 111.48C92.1036 111.478 92.1256 111.469 92.144 111.449C92.1531 111.439 92.1605 111.43 92.1678 111.421C92.3292 111.307 92.4905 111.192 92.6519 111.078C93.831 110.24 95.0247 109.42 96.2606 108.678C96.2973 108.729 96.3762 108.76 96.4422 108.709C96.6475 108.548 96.8511 108.384 97.0528 108.218C97.7624 107.82 98.4886 107.449 99.2386 107.123C101.303 106.226 103.48 105.608 105.684 105.157C105.708 105.163 105.734 105.161 105.761 105.146C105.767 105.144 105.772 105.141 105.776 105.139C106.021 105.089 106.265 105.04 106.511 104.994C107.03 104.897 107.549 104.811 108.07 104.728C108.062 104.734 108.053 104.737 108.046 104.743C107.912 104.831 108.037 105.047 108.172 104.959C108.358 104.836 108.552 104.726 108.75 104.625C109.803 104.471 110.861 104.343 111.919 104.226C111.898 104.235 111.876 104.242 111.856 104.251C111.763 104.288 111.805 104.44 111.898 104.402C112.097 104.323 112.295 104.242 112.493 104.163C113.023 104.106 113.554 104.051 114.084 104C114.403 103.969 114.724 103.938 115.043 103.907C115.153 103.896 115.197 103.723 115.073 103.701ZM86.3788 114.786C85.8195 115.065 85.2456 115.323 84.6588 115.549C86.1349 113.928 87.2021 111.944 87.7394 109.817C87.8971 109.195 88.0071 108.56 88.053 107.92C88.064 107.781 87.8586 107.788 87.8403 107.92C87.6936 109.023 87.4515 110.11 87.0628 111.153C86.6759 112.193 86.1532 113.185 85.5188 114.095C85.1594 114.61 84.7615 115.098 84.3305 115.554C84.2939 115.593 84.292 115.64 84.3085 115.679C84.0757 115.763 83.8428 115.844 83.6062 115.917C84.6258 114.498 85.3996 112.903 85.88 111.223C86.0286 110.7 86.1551 110.169 86.2284 109.63C86.2449 109.507 86.0377 109.479 86.0121 109.6C85.8122 110.526 85.5921 111.436 85.2602 112.325C84.9265 113.213 84.5084 114.069 84.0133 114.878C83.7713 115.274 83.5072 115.657 83.2285 116.029C82.1448 116.335 81.0299 116.515 79.8985 116.513C79.6326 116.513 79.3667 116.504 79.1008 116.488C79.1265 116.477 79.1503 116.455 79.1632 116.422C79.2988 116.073 79.4511 115.732 79.6161 115.397C79.6161 115.402 79.6161 115.406 79.6161 115.409C79.6803 115.844 79.992 116.203 80.3972 116.361C80.4578 116.385 80.5293 116.335 80.5458 116.277C80.5641 116.209 80.5219 116.152 80.4614 116.128C80.4321 116.117 80.3936 116.099 80.3532 116.077C80.3129 116.055 80.2744 116.029 80.2359 116.003C80.2102 115.985 80.1772 115.958 80.1442 115.926C80.1094 115.893 80.0763 115.859 80.0452 115.822C79.937 115.695 79.8563 115.527 79.8196 115.354C79.8086 115.297 79.7426 115.266 79.6894 115.281C79.6803 115.283 79.6729 115.288 79.6656 115.292C80.5183 113.587 81.7157 112.067 83.1148 110.77C84.9173 109.1 87.0408 107.818 89.2907 106.844C89.4026 106.796 89.5163 106.752 89.6281 106.705C89.4759 107.887 89.2375 109.054 88.8561 110.187C88.4674 111.342 87.9429 112.45 87.2956 113.484C87.0114 113.933 86.7052 114.368 86.3788 114.786ZM113.215 103.874C113.255 103.857 113.296 103.841 113.336 103.826C113.424 103.789 113.387 103.644 113.296 103.681C113.087 103.763 112.878 103.848 112.669 103.93C111.616 104.039 110.565 104.154 109.518 104.293C110.138 104.07 110.789 103.94 111.451 103.912C111.576 103.907 111.576 103.719 111.451 103.719C110.463 103.718 109.489 103.965 108.614 104.418C108.242 104.471 107.87 104.528 107.498 104.589C107.158 104.644 106.821 104.704 106.482 104.767C107.149 104.413 107.817 104.057 108.48 103.694C108.59 103.633 108.493 103.472 108.383 103.527C107.481 103.984 106.584 104.451 105.688 104.922C104.685 105.124 103.689 105.357 102.704 105.638C103.628 105.051 104.591 104.532 105.583 104.07C105.686 104.022 105.613 103.841 105.504 103.885C104.399 104.325 103.346 104.886 102.35 105.537C102.266 105.592 102.277 105.691 102.328 105.749C101.602 105.966 100.882 106.204 100.174 106.476C100.012 106.538 99.8529 106.602 99.6933 106.666C100.81 105.815 101.934 104.972 103.031 104.097C103.115 104.029 103.003 103.883 102.915 103.947C101.65 104.875 100.414 105.845 99.1671 106.8C99.1304 106.828 99.1194 106.868 99.1249 106.906C98.7251 107.081 98.3291 107.264 97.9366 107.458C98.6793 106.789 99.3853 106.076 100.042 105.322C100.346 104.974 100.638 104.614 100.918 104.248C100.986 104.158 100.834 104.04 100.762 104.127C99.7227 105.388 98.6005 106.58 97.3645 107.653C97.2618 107.743 97.1555 107.829 97.051 107.917C96.9593 107.966 96.8676 108.014 96.7759 108.065C96.0406 108.48 95.3254 108.933 94.6231 109.4C95.4941 108.491 96.2936 107.51 96.9996 106.466C97.2673 106.07 97.5204 105.663 97.7533 105.245C97.8156 105.133 97.6487 105.036 97.5809 105.144C96.6897 106.564 95.7013 107.915 94.5516 109.136C94.2399 109.468 93.9171 109.789 93.5871 110.101C93.5596 110.119 93.5339 110.137 93.5064 110.156C93.2772 110.315 93.0498 110.477 92.8224 110.638C93.8255 109.391 94.691 108.027 95.3566 106.575C95.5858 106.076 95.793 105.568 95.9691 105.049C96.0094 104.93 95.8279 104.886 95.782 104.998C95.0669 106.774 94.1794 108.471 93.0315 110.009C92.7436 110.394 92.4392 110.768 92.122 111.131C91.6965 111.434 91.2693 111.736 90.842 112.035C91.9092 110.746 92.7527 109.266 93.2919 107.684C93.4862 107.114 93.6403 106.531 93.754 105.938C93.7778 105.812 93.5871 105.757 93.5596 105.885C93.1103 107.919 92.2356 109.853 90.9704 111.507C90.6807 111.887 90.3634 112.244 90.0352 112.591C89.4429 112.993 88.8433 113.385 88.2308 113.755C88.2382 113.75 88.2455 113.746 88.2528 113.737C89.5548 112.153 90.6092 110.361 91.3408 108.443C91.5462 107.904 91.7314 107.354 91.8634 106.793C91.8927 106.666 91.7094 106.617 91.669 106.74C91.3481 107.702 91.0181 108.656 90.5871 109.576C90.1636 110.482 89.6703 111.355 89.111 112.182C88.7883 112.659 88.4454 113.121 88.0805 113.565C87.9961 113.667 88.108 113.805 88.2033 113.772C87.8347 113.994 87.4643 114.212 87.0848 114.417C87.0169 114.454 86.9472 114.489 86.8794 114.526C88.1483 112.791 89.067 110.799 89.5364 108.702C89.6886 108.02 89.7968 107.321 89.8353 106.622C89.8353 106.62 89.8353 106.62 89.8353 106.619C92.1293 105.682 94.5388 105.034 96.9629 104.535C99.7557 103.96 102.587 103.545 105.436 103.378C108.288 103.212 111.159 103.294 113.985 103.729C114.073 103.741 114.161 103.76 114.251 103.773C113.906 103.806 113.562 103.839 113.215 103.874Z" fill="#F364AB"/>
<path d="M111.132 117.974C110.634 118.673 110.1 119.333 109.475 119.921C108.857 120.505 108.173 121.016 107.45 121.46C105.93 122.393 104.245 123.017 102.507 123.398C100.464 123.844 98.3644 123.961 96.2776 123.941C94.4421 123.923 92.6047 123.739 90.7692 123.827C89.1335 123.906 87.4355 124.218 86.0804 125.195C85.9153 125.314 85.7558 125.443 85.6036 125.577C85.4569 125.705 85.6715 125.918 85.8163 125.791C87.0834 124.674 88.7631 124.265 90.4116 124.15C92.2288 124.023 94.0497 124.203 95.8669 124.236C97.9463 124.275 100.04 124.185 102.087 123.791C103.867 123.448 105.604 122.863 107.186 121.966C108.67 121.126 110.008 120.011 111.022 118.634C111.147 118.465 111.257 118.286 111.364 118.104C111.448 117.958 111.23 117.838 111.132 117.974Z" fill="#F364AB"/>
<path d="M111.841 116.146C110.088 114.802 108.003 113.881 105.862 113.36C103.716 112.84 101.475 112.726 99.2896 113.036C97.1881 113.335 95.1582 114.05 93.33 115.126C91.5678 116.162 89.9945 117.521 88.7017 119.104C87.409 120.686 86.3894 122.492 85.7385 124.432C85.6578 124.673 85.5826 124.915 85.5148 125.158C85.4616 125.346 85.7531 125.426 85.8063 125.239C86.3583 123.303 87.2788 121.482 88.4835 119.87C89.6883 118.26 91.1827 116.861 92.8716 115.766C94.6099 114.64 96.5482 113.85 98.5836 113.459C100.711 113.051 102.92 113.071 105.044 113.489C107.18 113.911 109.223 114.736 111.045 115.929C111.267 116.074 111.489 116.223 111.707 116.375C111.849 116.476 111.973 116.247 111.841 116.146Z" fill="#F364AB"/>
<path d="M62.2006 130.874C60.5778 130.865 58.988 131.246 57.4788 131.819C55.9385 132.402 54.4734 133.161 53.0064 133.905C51.5248 134.657 50.0303 135.403 48.4515 135.937C46.792 136.496 45.0628 136.768 43.3116 136.665C41.4816 136.557 39.7286 136.051 38.0892 135.242C37.8875 135.143 37.6895 135.04 37.4896 134.938C37.3448 134.861 37.2237 135.068 37.3613 135.158C38.1222 135.649 38.9676 136.012 39.8258 136.298C40.6876 136.586 41.5788 136.782 42.481 136.892C44.2542 137.109 46.053 136.957 47.7712 136.467C49.372 136.01 50.8903 135.304 52.3775 134.562C53.8701 133.817 55.3407 133.021 56.8829 132.381C58.3847 131.756 59.9653 131.276 61.5973 131.193C61.799 131.182 62.0008 131.179 62.2025 131.18C62.395 131.177 62.395 130.876 62.2006 130.874Z" fill="#F364AB"/>
<path d="M61.994 130.535C60.8131 129.161 59.2617 128.179 57.5821 127.524C55.8639 126.855 54.0284 126.519 52.1965 126.361C51.2063 126.277 50.2087 126.24 49.2149 126.257C48.1147 126.275 47.0053 126.372 45.9362 126.646C44.075 127.122 42.4778 128.199 41.1631 129.579C39.8685 130.94 38.8123 132.534 37.8569 134.144C37.7395 134.342 37.6259 134.54 37.5213 134.745C37.448 134.89 37.646 135.002 37.7359 134.872C38.2658 134.112 38.7187 133.302 39.234 132.532C39.7456 131.769 40.2884 131.024 40.8899 130.329C42.0818 128.954 43.5267 127.768 45.2614 127.163C47.251 126.47 49.4349 126.486 51.5125 126.613C53.3132 126.723 55.1157 126.998 56.8303 127.572C58.5063 128.133 60.0924 129.002 61.3393 130.269C61.4915 130.423 61.6364 130.583 61.7776 130.748C61.9078 130.896 62.1205 130.682 61.994 130.535Z" fill="#F364AB"/>
<path d="M101.053 170.915C101.042 170.912 101.031 170.91 101.018 170.906C101.087 170.763 100.86 170.644 100.754 170.783C100.743 170.796 100.732 170.811 100.722 170.824C99.7048 170.539 98.6761 170.292 97.651 170.032C96.5251 169.747 95.3992 169.461 94.2715 169.177L90.8626 168.317C90.2997 168.174 89.7367 168.033 89.1738 167.89C88.6475 167.758 88.1194 167.617 87.5766 167.563C87.0449 167.512 86.5223 167.569 86.029 167.78C85.5706 167.976 85.1617 168.266 84.7161 168.486C83.8139 168.933 82.776 169.098 81.7766 168.979C81.5272 168.95 81.2797 168.898 81.0377 168.83C80.7828 168.759 80.5352 168.654 80.2748 168.599C80.0273 168.546 79.7761 168.544 79.5377 168.634C79.3048 168.722 79.1049 168.869 78.9069 169.016C77.9625 169.707 77.0163 170.398 76.072 171.091C74.1906 172.47 72.3147 173.857 70.4333 175.234C70.1986 175.404 69.9657 175.577 69.731 175.749C69.6027 175.843 69.7273 176.061 69.8575 175.965C71.7243 174.605 73.5928 173.246 75.4632 171.889C76.3947 171.214 77.3226 170.536 78.2523 169.857L78.9546 169.344C79.1618 169.192 79.3726 169.016 79.6147 168.92C80.119 168.722 80.6727 169.056 81.1605 169.17C82.1067 169.392 83.1134 169.357 84.0431 169.072C84.518 168.928 84.9544 168.709 85.3817 168.46C85.8273 168.201 86.2747 167.941 86.7918 167.868C87.3291 167.793 87.8737 167.886 88.3963 168.005C88.9519 168.134 89.5039 168.28 90.0558 168.42C91.1725 168.702 92.2893 168.983 93.4042 169.265C94.9445 169.654 96.4848 170.05 98.0251 170.437C97.8821 170.411 97.7372 170.382 97.5942 170.36C96.6333 170.206 95.6614 170.131 94.6877 170.136C92.722 170.147 90.804 170.512 88.9391 171.124C87.0669 171.739 85.235 172.516 83.2876 172.865C82.2607 173.048 81.2174 173.107 80.1776 173.193C79.1673 173.277 78.1642 173.406 77.174 173.629C75.2138 174.071 73.3342 174.797 71.4749 175.544C71.242 175.637 71.0091 175.731 70.7762 175.826C70.6314 175.885 70.6937 176.125 70.8422 176.064C72.6943 175.32 74.5537 174.575 76.4919 174.077C77.4674 173.825 78.4576 173.648 79.4607 173.549C80.482 173.448 81.5107 173.402 82.5303 173.275C84.496 173.03 86.3334 172.344 88.1928 171.697C89.1115 171.377 90.0375 171.075 90.9873 170.859C91.9445 170.642 92.9219 170.508 93.9029 170.459C95.8503 170.362 97.7849 170.602 99.6608 171.132C99.8826 171.194 100.105 171.256 100.325 171.322C98.9951 172.991 97.5245 174.535 95.8668 175.887C94.0515 177.365 92.0325 178.611 89.8669 179.504C87.7362 180.385 85.4697 180.924 83.1647 181.023C80.9148 181.118 78.6465 180.817 76.5084 180.108C74.3886 179.405 72.3991 178.289 70.7542 176.772C70.5488 176.583 70.349 176.387 70.1528 176.185C70.0299 176.059 69.8355 176.251 69.9584 176.38C71.5372 178.017 73.4846 179.261 75.5989 180.089C77.7333 180.926 80.0309 181.334 82.3194 181.34C84.6537 181.345 86.9678 180.909 89.1573 180.104C91.3926 179.281 93.4848 178.094 95.3791 176.653C97.2861 175.199 98.997 173.497 100.482 171.616C100.611 171.454 100.733 171.288 100.856 171.123C100.9 171.132 100.943 171.143 100.987 171.152C101.142 171.194 101.208 170.961 101.053 170.915ZM100.482 171.128C100.469 171.113 100.453 171.102 100.431 171.093C100.255 171.025 100.077 170.967 99.8973 170.91C99.9762 170.928 100.055 170.948 100.132 170.969C100.266 171.002 100.402 171.029 100.535 171.06C100.519 171.08 100.501 171.104 100.482 171.128Z" fill="#F364AB"/>
<path d="M76.823 158.239C76.6854 158.066 76.4984 157.934 76.3242 157.802C76.1463 157.667 75.963 157.54 75.7741 157.421C75.4037 157.188 75.0131 156.988 74.6097 156.819C73.7918 156.478 72.919 156.277 72.0352 156.223C71.5327 156.194 71.0303 156.216 70.5315 156.284C70.3591 156.308 70.4325 156.568 70.603 156.546C72.2919 156.319 74.0486 156.702 75.5045 157.582C75.7081 157.705 75.9061 157.839 76.0968 157.98C76.293 158.125 76.469 158.301 76.6744 158.433C76.801 158.514 76.9036 158.341 76.823 158.239Z" fill="#F364AB"/>
<path d="M87.8219 152.772C85.7242 152.791 83.6686 153.702 82.2126 155.208C82.0091 155.419 81.8202 155.64 81.6423 155.871C81.4626 156.106 81.2793 156.35 81.1656 156.623C81.1179 156.739 81.2994 156.841 81.3783 156.746C81.5378 156.554 81.6662 156.335 81.8147 156.135C81.9651 155.932 82.1283 155.738 82.2988 155.551C82.6399 155.178 83.0194 154.839 83.4284 154.54C84.2352 153.952 85.1502 153.517 86.1202 153.273C86.6777 153.132 87.248 153.059 87.8238 153.053C88.0035 153.053 88.0053 152.771 87.8219 152.772Z" fill="#F364AB"/>
<path d="M72.1563 139.055C71.8024 136.392 71.1074 133.774 70.0933 131.287C69.5212 129.886 68.8501 128.526 68.0818 127.224C67.9864 127.064 67.737 127.209 67.8324 127.37C69.193 129.677 70.2455 132.158 70.9699 134.735C71.6942 137.313 72.0884 139.977 72.1471 142.654C72.1801 144.154 72.1049 145.656 71.9234 147.145C71.905 147.303 72.1489 147.299 72.1691 147.145C72.5248 144.461 72.512 141.738 72.1563 139.055Z" fill="#F364AB"/>
<path d="M80.5081 215.92C76.2429 213.543 71.5907 211.975 66.8451 210.882C62.006 209.767 57.0751 209.1 52.1571 208.44C49.5203 208.086 46.8596 207.791 44.2062 208.145C41.5602 208.497 38.993 209.305 36.3873 209.872C36.0609 209.944 35.7345 210.008 35.4062 210.074C35.8096 209.705 36.3066 209.43 36.7705 209.153C37.4673 208.737 38.1495 208.293 38.8133 207.826C40.1335 206.894 41.3841 205.864 42.554 204.747C43.7184 203.634 44.8021 202.436 45.7923 201.166C46.7862 199.891 47.6902 198.547 48.4879 197.141C49.2856 195.736 49.9787 194.271 50.5563 192.762C50.6278 192.576 50.6957 192.391 50.7635 192.206C50.8259 192.032 50.5508 191.959 50.4885 192.131C49.9347 193.646 49.2635 195.116 48.4897 196.53C47.7159 197.942 46.8376 199.297 45.8657 200.582C44.8938 201.868 43.8248 203.082 42.675 204.211C41.5253 205.341 40.2931 206.386 38.9893 207.332C38.3365 207.805 37.6672 208.253 36.9814 208.675C36.3158 209.084 35.5364 209.437 35.0266 210.05C34.9936 210.09 34.9643 210.132 34.9331 210.175C30.0812 211.154 25.165 211.777 20.2543 212.366C18.945 212.524 17.6358 212.667 16.3284 212.839C15.2025 212.989 14.0344 213.208 13.0717 213.849C12.2979 214.365 11.6414 215.149 11.4855 216.088C11.3425 216.952 11.6946 217.874 12.3969 218.404C12.7215 218.65 13.0955 218.771 13.5026 218.773C13.675 218.773 13.6732 218.516 13.5026 218.507C12.7985 218.47 12.23 217.981 11.9458 217.359C13.4073 217.324 14.8504 217.073 16.222 216.563C17.4542 216.107 18.7488 215.483 19.6364 214.487C20.0893 213.978 20.4083 213.373 20.4744 212.689C20.4762 212.67 20.4725 212.656 20.4689 212.641C20.5734 212.628 20.6779 212.615 20.7806 212.604C25.44 212.043 30.1013 211.442 34.7076 210.527C34.6379 210.666 34.8359 210.785 34.9185 210.649C34.9606 210.582 35.0065 210.519 35.0542 210.457C35.3494 210.396 35.6464 210.34 35.9435 210.277C38.4483 209.747 40.9129 208.995 43.4379 208.566C46.0252 208.126 48.6107 208.291 51.1999 208.618C55.9676 209.221 60.7499 209.879 65.4515 210.881C70.0468 211.86 74.6072 213.204 78.821 215.313C79.3473 215.577 79.8681 215.852 80.3815 216.136C80.5227 216.215 80.6493 215.998 80.5081 215.92ZM20.1993 212.687C20.0783 213.884 19.0844 214.759 18.1144 215.346C16.9426 216.055 15.6224 216.539 14.2819 216.814C13.5026 216.974 12.7086 217.064 11.9128 217.066C11.8871 217.066 11.8651 217.073 11.8449 217.082C11.7826 216.879 11.7496 216.668 11.7514 216.457C11.7643 215.391 12.5619 214.484 13.4384 213.972C14.4928 213.358 15.7452 213.206 16.9335 213.063C18.0227 212.931 19.1119 212.802 20.2011 212.67C20.2011 212.678 20.1993 212.681 20.1993 212.687Z" fill="#F364AB"/>
<path d="M113.425 291.606C112.217 288.872 111.015 286.136 109.809 283.402C109.206 282.036 108.602 280.668 107.999 279.302C107.458 278.08 106.932 276.85 106.358 275.645C105.303 273.434 104.014 271.281 102.041 269.772C99.9949 268.206 97.4992 267.412 95.1576 266.407C92.6234 265.32 90.1791 264.019 87.8576 262.527C87.7732 262.472 87.6889 262.42 87.6027 262.367C87.6815 262.321 87.7219 262.219 87.6302 262.149C84.214 259.507 81.6303 256.01 78.9201 252.691C77.4898 250.94 75.9917 249.254 74.3743 247.672C72.7075 246.04 70.949 244.503 69.1538 243.012C65.7284 240.165 62.1655 237.438 58.2579 235.278C56.338 234.216 54.3356 233.299 52.2599 232.586C50.0539 231.827 47.7764 231.293 45.4825 230.875C40.8854 230.037 36.2186 229.654 31.6252 228.801C30.5268 228.598 29.4229 228.38 28.3447 228.086C27.3068 227.804 26.2671 227.421 25.4107 226.749C24.6314 226.137 24.0996 225.231 23.1956 224.776C22.431 224.391 21.1822 224.191 21.1602 223.115C21.1364 221.965 22.2696 221.367 23.2231 221.105C24.3545 220.795 25.5299 220.601 26.6888 220.421C29.0818 220.049 31.5041 219.864 33.9265 219.867C38.7418 219.871 43.4782 220.66 48.0808 222.055C52.4597 223.383 56.7029 225.116 61.0836 226.434C63.2511 227.087 65.4534 227.635 67.6942 227.971C69.8433 228.292 72.04 228.343 74.158 228.858C75.1903 229.109 76.186 229.483 77.0956 230.037C77.2294 230.12 77.3541 229.909 77.2184 229.826C75.3829 228.704 73.2429 228.352 71.1397 228.114C68.8402 227.853 66.5719 227.582 64.3165 227.039C59.7909 225.952 55.4633 224.213 51.0661 222.719C48.8528 221.965 46.6157 221.27 44.3346 220.749C41.9691 220.209 39.5596 219.855 37.1373 219.686C34.7076 219.517 32.2651 219.537 29.8391 219.745C28.6344 219.847 27.4315 219.998 26.2377 220.194C25.1063 220.379 23.9328 220.553 22.8399 220.909C21.9982 221.182 21.2024 221.69 20.9383 222.581C20.6853 223.436 21.1199 224.16 21.8863 224.54C22.2916 224.74 22.7299 224.864 23.1278 225.081C23.6009 225.337 23.9658 225.732 24.327 226.12C25.033 226.881 25.8086 227.465 26.7677 227.87C27.7615 228.29 28.8178 228.532 29.8685 228.757C31.0237 229.005 32.1881 229.218 33.3543 229.406C35.7143 229.788 38.0853 230.079 40.4526 230.402C45.1139 231.037 49.7972 231.82 54.1687 233.631C58.4248 235.395 62.2939 237.975 65.9191 240.792C69.6434 243.685 73.2906 246.77 76.4611 250.272C79.4042 253.521 81.876 257.183 85.0135 260.26C85.6205 260.854 86.2531 261.421 86.9114 261.957C86.7995 261.953 86.7317 262.12 86.8435 262.2C87.9713 263.009 89.1705 263.722 90.3826 264.397C91.58 265.065 92.8031 265.683 94.05 266.249C95.2401 266.79 96.4577 267.263 97.6643 267.766C98.8342 268.252 99.9967 268.778 101.068 269.462C102.109 270.129 103.02 270.958 103.789 271.926C104.557 272.895 105.182 273.971 105.738 275.071C106.312 276.206 106.816 277.376 107.332 278.539C107.933 279.896 108.533 281.253 109.134 282.61C110.337 285.323 111.545 288.034 112.746 290.748C112.893 291.079 113.042 291.413 113.188 291.745C113.262 291.899 113.495 291.762 113.425 291.606Z" fill="#F364AB"/>
<path d="M77.4449 221.73C71.9842 220.23 66.5051 218.791 61.0351 217.325C58.3579 216.608 55.6825 215.853 52.9466 215.389C50.2291 214.927 47.5115 214.865 44.7683 215.094C41.9426 215.329 39.1278 215.721 36.3149 216.06C33.4818 216.399 30.6469 216.74 27.8139 217.08L19.377 218.092C17.9815 218.259 16.5861 218.427 15.1906 218.594C14.5488 218.671 13.885 218.706 13.2524 218.842C12.8747 218.923 12.4731 219.1 12.3264 219.487C12.1393 219.979 12.4492 220.483 12.7041 220.885C12.9773 221.314 13.2836 221.724 13.6155 222.11C14.2921 222.896 15.0843 223.582 15.9498 224.152C17.6826 225.295 19.7309 225.968 21.8085 226.041C22.3219 226.059 22.8335 226.037 23.3433 225.981C23.534 225.959 23.5358 225.658 23.3433 225.678C19.9179 226.058 16.2982 224.671 13.9896 222.099C14.2738 222.121 14.5672 222.1 14.8459 222.082C15.2236 222.056 15.5977 222.007 15.97 221.95C16.6539 221.844 17.3397 221.734 18.0145 221.576C19.2266 221.294 20.435 220.797 21.2437 219.812C21.6526 219.315 21.9277 218.734 22.0028 218.094C22.0028 218.088 22.001 218.086 22.001 218.081C23.8531 217.859 25.7033 217.637 27.5553 217.415C30.26 217.091 32.9647 216.766 35.6695 216.442C38.3815 216.117 41.0936 215.754 43.8111 215.486C46.503 215.22 49.1912 215.152 51.8757 215.53C54.5089 215.899 57.0835 216.585 59.647 217.27C64.9097 218.679 70.1706 220.087 75.4334 221.495C76.0788 221.668 76.7243 221.836 77.3698 222.005C77.5458 222.045 77.6191 221.778 77.4449 221.73ZM19.8537 220.589C18.7278 221.226 17.4112 221.413 16.1552 221.622C15.7646 221.688 15.3722 221.748 14.9779 221.787C14.7836 221.805 14.5892 221.818 14.3948 221.82C14.1821 221.822 13.9694 221.802 13.7585 221.807C13.753 221.807 13.7493 221.809 13.7438 221.811C13.3991 221.394 13.0855 220.951 12.8123 220.481C12.6546 220.21 12.4657 219.836 12.6399 219.526C12.7848 219.267 13.1075 219.177 13.3789 219.122C14.0152 218.996 14.6772 218.957 15.3208 218.879C16.6943 218.714 18.0695 218.549 19.443 218.383C20.204 218.292 20.965 218.2 21.726 218.11C21.5829 219.19 20.7724 220.07 19.8537 220.589Z" fill="#F364AB"/>
<path d="M31.5959 220.056C31.5648 219.88 31.297 219.956 31.3282 220.13C31.4291 220.7 31.2329 221.272 30.9065 221.736C30.5544 222.235 30.0391 222.591 29.5 222.86C28.9279 223.146 28.3173 223.353 27.7103 223.553C27.052 223.77 26.3864 223.962 25.7134 224.129C25.3485 224.219 24.9818 224.301 24.6113 224.377C24.2263 224.456 23.8357 224.512 23.4524 224.597C23.3131 224.626 23.3406 224.863 23.4873 224.848C24.2098 224.775 24.9323 224.604 25.6382 224.435C26.346 224.267 27.0447 224.069 27.736 223.843C28.9426 223.449 30.3087 223.012 31.099 221.949C31.5024 221.406 31.717 220.731 31.5959 220.056Z" fill="#F364AB"/>
<path d="M19.4226 226.014C17.18 228.985 15.2601 232.185 13.5915 235.507C11.9228 238.83 10.4998 242.27 9.21441 245.756C7.91432 249.277 6.75358 252.845 5.61485 256.421C4.38993 260.268 3.14851 264.113 2.13081 268.023C1.1076 271.952 0.315439 275.964 0.0678891 280.022C0.0367161 280.532 0.0147125 281.044 4.2864e-05 281.555C-0.00362455 281.708 0.22925 281.706 0.234751 281.555C0.397951 277.477 1.1021 273.45 2.07029 269.491C3.04032 265.527 4.27624 261.634 5.51033 257.746C6.63622 254.202 7.76945 250.661 9.0237 247.16C10.2816 243.653 11.6624 240.187 13.2779 236.828C14.8769 233.507 16.7069 230.294 18.8524 227.296C19.1238 226.916 19.4006 226.54 19.6812 226.168C19.8004 226.011 19.5382 225.86 19.4226 226.014Z" fill="#F364AB"/>
<path d="M137.793 154.186C137.738 153.07 137.558 151.953 137.21 150.889C137.041 150.37 136.836 149.859 136.581 149.377C136.368 148.971 136.053 148.561 135.561 148.516C135.072 148.472 134.551 148.775 134.164 149.048C133.781 149.32 133.451 149.652 133.166 150.024C132.574 150.798 132.194 151.716 131.947 152.652C131.34 154.938 131.47 157.327 131.665 159.66C131.688 159.937 131.712 160.216 131.736 160.492C131.663 160.494 131.589 160.54 131.599 160.624C131.65 161.066 132.002 161.316 132.393 161.461C132.625 161.547 132.871 161.594 133.113 161.646C133.414 161.708 133.716 161.765 134.021 161.816C134.624 161.917 135.231 161.996 135.84 162.049C136.071 162.069 136.355 162.123 136.542 161.947C136.722 161.778 136.757 161.475 136.815 161.248C137.428 158.95 137.91 156.577 137.793 154.186ZM136.891 159.783C136.764 160.326 136.625 160.865 136.474 161.4C136.447 161.497 136.427 161.633 136.357 161.712C136.276 161.804 136.131 161.778 136.023 161.769C135.734 161.745 135.446 161.716 135.158 161.683C134.586 161.615 134.017 161.523 133.452 161.411C133.018 161.325 132.53 161.263 132.154 161.01C132.017 160.916 131.921 160.795 131.881 160.637C131.938 160.634 131.989 160.595 131.982 160.522C131.795 158.336 131.617 156.115 131.971 153.937C132.26 152.166 132.928 150.115 134.565 149.145C134.949 148.918 135.48 148.649 135.889 148.96C136.251 149.235 136.439 149.747 136.612 150.149C137.026 151.117 137.283 152.153 137.411 153.196C137.686 155.402 137.391 157.628 136.891 159.783Z" fill="#F364AB"/>
<path d="M140.415 203.562C139.674 200.293 139.113 197.008 138.81 193.667C138.509 190.332 138.414 186.98 138.416 183.631C138.418 180.274 138.515 176.918 138.605 173.563C138.693 170.203 138.773 166.844 138.739 163.485C138.704 160.125 138.623 156.726 138.089 153.405C138.02 152.976 137.941 152.548 137.855 152.123C137.816 151.938 137.534 152.017 137.572 152.202C138.254 155.548 138.363 159.003 138.423 162.408C138.484 165.782 138.418 169.158 138.331 172.532C138.245 175.89 138.139 179.247 138.119 182.605C138.099 185.94 138.163 189.277 138.421 192.604C138.676 195.888 139.089 199.194 139.857 202.399C139.956 202.812 140.063 203.221 140.174 203.63C140.217 203.786 140.451 203.72 140.415 203.562Z" fill="#F364AB"/>
<path d="M153.021 199.888C152.814 198.223 152.595 196.545 152.108 194.935C151.62 193.329 150.841 191.834 149.639 190.648C148.979 189.997 148.237 189.437 147.503 188.874C146.687 188.249 145.871 187.622 145.055 186.997C144.294 186.412 143.542 185.808 142.758 185.255C142.048 184.754 141.278 184.299 140.427 184.094C140.223 184.044 140.014 184.011 139.805 183.991C139.613 183.973 139.613 184.274 139.805 184.294C140.662 184.378 141.448 184.758 142.163 185.218C142.932 185.713 143.645 186.294 144.369 186.85C145.171 187.464 145.972 188.08 146.775 188.695C147.52 189.265 148.279 189.822 148.981 190.448C149.627 191.022 150.201 191.662 150.661 192.397C151.088 193.081 151.418 193.818 151.677 194.581C152.208 196.147 152.452 197.794 152.661 199.427C152.911 201.386 153.135 203.348 153.402 205.303C153.437 205.552 153.474 205.8 153.509 206.047C153.529 206.188 153.773 206.155 153.758 206.012C153.549 203.968 153.276 201.929 153.021 199.888Z" fill="#F364AB"/>
<path d="M171.452 217.462C172.288 217.858 173.185 218.166 173.955 218.69C175.604 219.811 176.35 221.824 176.86 223.667C177.417 225.682 177.645 227.774 177.692 229.861C177.789 234.079 177.34 238.364 176.764 242.537C176.465 244.705 176.075 246.856 175.578 248.987C175.105 251.013 174.568 253.028 174.208 255.08C173.464 259.327 174.039 263.543 174.012 267.813C173.983 272.176 173.104 276.478 172.692 280.809C172.411 283.748 172.259 286.695 172.193 289.644C172.296 289.675 172.398 289.706 172.501 289.735C172.541 287.678 172.624 285.619 172.767 283.561C173.073 279.166 173.873 274.829 174.203 270.439C174.535 266.029 173.768 261.61 174.212 257.209C174.434 255.01 174.956 252.858 175.475 250.714C175.985 248.607 176.453 246.498 176.796 244.357C177.47 240.156 177.916 235.857 177.993 231.601C178.03 229.617 177.936 227.624 177.599 225.666C177.278 223.814 176.772 221.864 175.776 220.249C175.358 219.57 174.828 218.962 174.173 218.503C173.407 217.968 172.514 217.654 171.672 217.26C170.026 216.49 168.472 215.518 167.057 214.377C164.262 212.125 162.221 209.311 160.589 206.14C159.249 203.535 157.943 200.584 155.457 198.859C154.879 198.459 154.25 198.154 153.584 197.933C153.418 197.878 153.346 198.14 153.511 198.197C156.573 199.222 158.226 202.176 159.625 204.877C160.351 206.28 161.04 207.704 161.893 209.036C162.823 210.486 163.917 211.834 165.144 213.042C166.351 214.231 167.689 215.287 169.125 216.185C169.875 216.657 170.653 217.084 171.452 217.462Z" fill="#F364AB"/>
<path d="M160.657 137.113C155.767 127.539 158.561 116.304 156.15 106.149C155.077 101.628 152.935 97.3211 149.202 94.4294C146.879 92.6287 144.174 91.5064 141.348 90.8298C141.084 88.5487 140.805 86.2694 140.492 83.9937C140.514 83.9662 140.508 83.9222 140.479 83.902C139.824 79.1729 139.014 74.4676 137.851 69.8338C135.913 62.1158 132.944 54.5609 128.142 48.1539C123.231 41.6058 116.593 36.6694 109.568 32.5931C107.1 31.161 104.579 29.8261 102.032 28.537C101.856 27.1067 101.595 25.6855 101.262 24.2828C101.271 24.2571 101.284 24.2333 101.293 24.2057C101.315 24.1397 101.267 24.0847 101.208 24.0682C99.9065 18.7303 97.4713 13.6748 93.8626 9.49576C91.6127 6.89006 88.9061 4.64011 85.8567 3.03011C82.8274 1.42929 79.4754 0.457424 76.0647 0.14386C72.6687 -0.16787 69.1919 0.1842 65.9609 1.28626C64.4005 1.81803 62.8968 2.52584 61.5014 3.40602C59.9189 4.40539 58.5124 5.63764 57.2032 6.96891C55.782 8.41204 54.4636 9.95419 53.0517 11.4065C51.7186 12.7781 50.2809 14.0195 48.7315 15.1399C45.8452 17.2248 42.7151 18.9485 39.8508 21.0646C36.9921 23.1752 34.4689 25.7186 32.9762 28.9881C31.4799 32.2649 30.9922 35.9891 31.6138 39.5392C31.766 40.4084 31.9879 41.261 32.2721 42.0954C32.3326 42.2714 32.6113 42.1962 32.5508 42.0184C31.3718 38.5563 31.3534 34.7551 32.4261 31.2619C33.4878 27.8053 35.6186 24.9319 38.3618 22.6159C41.0409 20.355 44.1032 18.6166 47.0169 16.6876C48.4326 15.7487 49.8225 14.764 51.1134 13.6583C52.6061 12.382 53.9318 10.9334 55.2558 9.48659C56.565 8.05447 57.8798 6.61868 59.3596 5.35892C60.6835 4.23119 62.1468 3.28133 63.7147 2.52951C66.7476 1.07172 70.118 0.369406 73.4773 0.340066C76.8605 0.308893 80.2474 0.954357 83.3867 2.21778C86.5791 3.50137 89.4636 5.46894 91.9189 7.8711C96.4683 12.3197 99.4884 18.1637 100.987 24.3231C100.391 25.4453 99.1822 26.1843 97.9023 26.1825C97.5319 26.1806 97.167 26.1128 96.8204 25.9808C95.2819 25.2601 93.7269 24.5872 92.1371 24.0279C92.8889 23.8738 93.5674 23.4741 94.123 22.9423C94.829 22.2675 95.3094 21.402 95.678 20.5072C95.898 19.9717 96.0796 19.4234 96.2501 18.8715C96.2978 18.7138 96.0612 18.6533 96.0062 18.8036C95.3828 20.4962 94.7648 22.3794 93.1126 23.3457C92.7056 23.5841 92.2526 23.7455 91.7814 23.7913C91.7263 23.7968 91.6897 23.828 91.6658 23.8665C89.7441 23.2192 87.7692 22.7406 85.7063 22.5426C83.4288 22.3244 81.1257 22.3354 78.8244 22.4509C80.4802 21.4589 82.0004 20.2413 83.3151 18.8275C83.7222 18.3892 84.1091 17.9345 84.4759 17.4614C84.5492 17.366 84.419 17.2303 84.342 17.3275C83.0272 18.9705 81.4723 20.4228 79.7339 21.6092C79.281 21.9173 78.8171 22.2052 78.3421 22.4766C76.0848 22.6031 73.8294 22.8195 71.6014 23.0102C66.9713 23.4026 62.3192 24.0095 57.9 25.504C57.1133 25.7699 56.3358 26.0615 55.5693 26.3769C55.331 26.397 55.0926 26.4117 54.8524 26.419C52.8518 26.4777 50.8329 26.0633 49.0285 25.1941C48.0108 24.7045 47.0646 24.0719 46.2339 23.3072C46.1276 23.21 45.9717 23.3659 46.0762 23.4649C47.567 24.8824 49.4448 25.8579 51.4398 26.3365C52.5492 26.6024 53.6953 26.7179 54.8377 26.6849C51.7956 27.9979 48.9038 29.6592 46.1404 31.4837C42.473 33.9042 38.9505 36.5778 35.6773 39.5117C29.4097 45.132 24.3303 51.8654 20.7711 59.5009C17.3549 66.8321 15.3177 74.783 14.6117 82.833C14.4265 84.9473 14.3366 87.0689 14.3366 89.1886C13.2712 93.3218 12.9613 97.6677 13.2987 101.915C13.6783 106.715 15.0188 111.27 16.7645 115.737C18.4643 120.09 20.408 124.376 21.5431 128.925C22.5333 132.895 22.9385 136.982 23.2833 141.049C23.9452 148.865 24.2827 157.204 28.3663 164.143C28.8541 164.972 29.4005 165.766 29.9873 166.529C30.1762 166.775 30.6016 166.536 30.4127 166.281C25.6213 159.823 24.7704 151.645 24.1213 143.877C23.7875 139.889 23.5015 135.886 22.7974 131.941C22.0107 127.546 20.4887 123.398 18.82 119.272C17.0707 114.945 15.2883 110.614 14.4246 106.004C13.5481 101.319 13.506 96.4464 14.355 91.754C14.3641 91.7063 14.3733 91.6568 14.3825 91.6091C14.564 97.1964 15.3562 102.765 16.6764 108.199C18.5505 115.909 21.4752 123.352 25.183 130.364C25.2325 130.764 25.2692 131.166 25.293 131.569C25.5094 135.172 24.7741 138.741 24.6824 142.335C24.5375 148.019 26.1989 153.711 29.3455 158.442C29.8333 159.601 30.3779 160.732 30.9812 161.831C31.4469 162.676 31.9475 163.494 32.4922 164.29C32.7709 164.699 33.4237 164.334 33.1651 163.897C32.659 163.048 32.1786 162.187 31.7257 161.312C31.7568 161.27 31.766 161.209 31.722 161.158C31.656 161.083 31.5936 161.004 31.5295 160.929C30.2954 158.492 29.2813 155.958 28.5735 153.3C27.5778 149.567 27.1506 145.691 27.3248 141.829C27.4201 139.718 27.7594 137.646 28.1316 135.578C28.6084 136.37 29.0925 137.158 29.5894 137.94C29.6682 138.064 29.8699 137.949 29.7893 137.822C29.2447 136.966 28.7165 136.098 28.1958 135.227C28.4232 133.979 28.656 132.73 28.8541 131.476C30.0515 135.701 31.3241 139.903 32.736 144.062C34.2012 148.379 35.8167 152.648 37.6394 156.829C39.4382 160.956 41.4095 165.031 43.7896 168.859C46.1111 172.593 48.8818 175.978 52.0175 179.053C54.2711 181.264 56.6677 183.32 59.1084 185.322C58.7453 185.068 58.3822 184.813 58.021 184.556C55.7362 182.93 53.4917 181.22 51.5297 179.207C49.8848 177.516 48.4472 175.639 47.0664 173.73C44.3801 170.017 41.8605 166.069 38.3398 163.072C37.5073 162.364 36.6235 161.721 35.692 161.151C35.6388 161.118 35.5508 161.125 35.5086 161.174C34.5367 162.315 35.3729 163.764 35.8075 164.954C36.1394 165.861 36.2678 166.699 35.9285 167.633C35.5929 168.557 35.1015 169.378 34.9365 170.363C34.3405 173.933 36.9077 177.184 39.1907 179.621C40.588 181.112 42.0788 182.515 43.5017 183.98C44.9962 185.521 46.465 187.087 47.9044 188.678C50.7375 191.81 53.4606 195.043 56.0681 198.366C59.0534 202.169 61.8828 206.093 64.5545 210.12C64.6609 210.281 64.9231 210.131 64.8149 209.967C60.634 203.669 56.0663 197.627 51.1391 191.893C48.6563 189.005 46.0836 186.195 43.4247 183.469C40.9125 180.892 38.0134 178.47 36.2677 175.268C35.4407 173.752 34.9163 172.002 35.2574 170.271C35.4536 169.278 35.9982 168.392 36.2733 167.449C36.6583 167.998 37.1259 168.506 37.5789 168.993C38.0923 169.545 38.6332 170.072 39.2145 170.552C40.3753 171.511 41.6974 172.287 43.1551 172.688C43.9675 172.912 44.8147 173.015 45.6582 172.963C45.8507 172.952 45.8525 172.65 45.6582 172.661C42.6454 172.844 39.9847 171.082 37.9859 168.986C37.7035 168.689 37.4303 168.385 37.1626 168.075C36.8949 167.763 36.6382 167.433 36.3521 167.136C36.4456 166.701 36.4731 166.254 36.3686 165.773C36.2127 165.053 35.89 164.383 35.6406 163.694C35.4536 163.18 35.063 162.115 35.5361 161.638C35.7121 161.462 35.7727 161.558 35.9744 161.688C36.1174 161.781 36.2604 161.875 36.4016 161.972C36.7885 162.236 37.1663 162.515 37.5348 162.806C38.1326 163.279 38.7048 163.786 39.253 164.314C43.8336 168.735 46.6979 174.575 51.0749 179.176C53.5798 181.809 56.5595 183.914 59.5246 185.988C60.7239 186.826 61.9103 187.677 63.0839 188.546C64.6462 189.8 66.2268 191.064 67.8442 192.28C67.9249 192.347 68.0074 192.413 68.0881 192.481C73.3563 196.926 78.1899 201.857 82.8365 206.942C87.5125 212.06 92.0051 217.339 96.6168 222.514C101.214 227.672 105.936 232.735 111.048 237.389C113.67 239.774 116.419 241.99 119.204 244.181C122.093 246.455 124.861 248.848 127.007 251.859C130.979 257.433 132.849 264.179 134.257 270.788C134.606 272.424 134.925 274.065 135.24 275.708C135.273 275.882 135.539 275.809 135.506 275.634C133.81 266.724 131.897 257.165 125.976 250.028C126.889 250.894 127.79 251.77 128.665 252.676C130.269 254.336 131.791 256.08 133.13 257.961C134.554 259.962 135.862 262.142 136.628 264.485C137.07 265.835 137.263 267.219 137.235 268.639C137.208 270.115 137.037 271.589 136.913 273.06C136.658 276.04 136.403 279.018 136.161 281.997C136.102 282.725 136.043 283.453 135.99 284.181C135.979 284.341 136.221 284.337 136.238 284.181C136.535 281.183 136.779 278.18 137.034 275.178C137.162 273.678 137.292 272.18 137.417 270.68C137.536 269.24 137.62 267.79 137.395 266.356C136.999 263.84 135.783 261.498 134.437 259.368C133.219 257.438 131.798 255.643 130.271 253.953C127.152 250.498 123.605 247.467 120.195 244.309C116.623 241.005 113.254 237.532 110.581 233.444C109.029 231.073 107.634 228.603 106.108 226.216C104.562 223.795 102.927 221.43 101.207 219.129C100.794 218.577 100.376 218.028 99.9542 217.484C99.9487 217.477 99.9413 217.473 99.9358 217.467C99.978 217.412 99.9817 217.332 99.901 217.288C99.8937 217.284 99.8845 217.278 99.8772 217.275C101.014 216.64 101.892 215.579 102.307 214.337C102.443 213.932 102.545 213.492 102.527 213.061C102.521 212.927 102.305 212.883 102.281 213.028C102.224 213.378 102.175 213.728 102.076 214.069C101.977 214.412 101.841 214.741 101.671 215.054C101.329 215.679 100.862 216.239 100.293 216.67C100.07 216.838 99.8295 216.987 99.5801 217.115C98.8375 216.71 98.0911 216.31 97.3687 215.87C96.549 215.371 95.7495 214.838 94.9738 214.271C93.4207 213.136 91.9666 211.869 90.6298 210.486C90.2924 210.138 89.9642 209.784 89.6433 209.421C89.4892 209.247 89.3095 209.074 89.194 208.871C89.0565 208.629 89.183 208.446 89.3572 208.268C89.9587 207.652 90.7508 207.259 91.5833 207.068C93.2685 206.683 94.9683 207.166 96.4316 208.015C96.4261 208.093 96.4738 208.17 96.5747 208.158C96.6022 208.154 96.6297 208.152 96.6572 208.148C96.6975 208.172 96.7379 208.196 96.7764 208.222C98.5147 209.328 99.89 210.879 101.324 212.335C101.506 212.52 101.691 212.703 101.876 212.885C101.988 212.995 102.16 212.823 102.048 212.713C100.521 211.218 99.1437 209.548 97.398 208.293C97.3082 208.229 97.2183 208.167 97.1266 208.104C99.1712 207.96 101.205 208.383 103.099 209.159C105.211 210.022 107.151 211.29 108.943 212.692C110.791 214.139 112.528 215.74 114.187 217.4C115.858 219.07 117.44 220.827 118.929 222.66C120.431 224.509 121.834 226.436 123.132 228.431C123.29 228.671 123.448 228.911 123.607 229.152C123.624 229.177 123.646 229.192 123.67 229.201C123.647 229.518 123.622 229.834 123.603 230.151C123.594 230.309 123.84 230.309 123.851 230.151C124.097 226.115 124.715 222.119 125.307 218.124C125.89 214.185 126.409 210.244 126.591 206.263C126.772 202.271 126.704 198.272 126.6 194.278C126.495 190.285 126.354 186.291 126.385 182.295C126.416 178.294 126.625 174.287 127.214 170.326C127.287 169.837 127.366 169.347 127.447 168.858C127.46 168.782 127.414 168.726 127.357 168.704C127.863 167.603 128.316 166.479 128.71 165.331C129.932 161.769 130.443 158.068 130.586 154.329C130.621 154.338 130.66 154.333 130.693 154.296C130.869 154.104 131.045 153.911 131.221 153.717C131.397 153.524 131.576 153.333 131.738 153.128C131.773 153.082 131.782 153.022 131.738 152.978C131.696 152.936 131.63 152.937 131.587 152.978C131.399 153.157 131.224 153.354 131.048 153.546C130.898 153.711 130.748 153.876 130.597 154.041C130.616 153.493 130.627 152.943 130.63 152.393C130.665 147.561 130.441 142.722 130.317 137.892C130.19 133.012 130.073 128.133 129.937 123.253C129.809 118.675 129.519 114.103 128.045 109.73C127.28 107.462 126.294 105.289 125.232 103.147C125.489 103.304 125.754 103.449 126.033 103.578C127.172 104.102 128.485 104.401 129.717 104.036C130.109 103.921 130.058 103.251 129.616 103.292C128.571 103.385 127.54 103.259 126.574 102.833C125.718 102.455 124.964 101.904 124.282 101.271C123.756 100.244 123.22 99.2208 122.696 98.1958C121.993 96.8205 121.306 95.4361 120.673 94.0259C123.521 94.93 126.488 95.4636 129.473 95.5919C133.025 95.7441 136.771 94.9813 140.279 95.7606C139.885 95.8065 139.494 95.8835 139.115 95.9825C135.299 96.9874 132.064 99.9635 130.528 103.563C130.346 103.99 130.185 104.425 130.049 104.869C129.999 105.03 130.253 105.1 130.302 104.938C131.437 101.258 134.309 98.1463 137.883 96.7086C138.926 96.2887 140.129 95.9733 141.277 96.0247C142.799 96.5069 143.978 97.3853 144.937 98.4837C145.458 99.5381 145.676 100.768 145.755 101.907C145.925 104.381 145.634 106.878 145.247 109.319C144.871 111.69 144.431 114.054 143.974 116.41C143.101 120.919 142.032 125.439 140.142 129.642C138.464 133.374 136.093 137.166 132.438 139.23C131.995 139.482 131.534 139.704 131.063 139.894C130.891 139.964 130.964 140.246 131.142 140.178C135.123 138.618 137.826 134.958 139.7 131.267C141.851 127.029 143.072 122.397 144.014 117.76C144.499 115.378 144.929 112.983 145.342 110.588C145.778 108.041 146.142 105.465 146.096 102.875C146.076 101.705 145.966 100.464 145.599 99.3235C146.853 101.069 147.706 103.194 148.542 105.158C150.361 109.436 151.925 113.815 153.288 118.26C153.625 119.359 153.949 120.459 154.287 121.555C154.439 122.05 155.187 121.847 155.064 121.341C154.723 119.929 154.331 118.528 153.907 117.134C153.841 113.896 153.687 110.652 153.034 107.473C152.365 104.209 151.126 101.073 149.068 98.4287C147.183 96.0082 144.632 94.0993 141.638 93.3255C141.568 92.702 141.497 92.0785 141.425 91.4551C142.929 91.8273 144.396 92.3334 145.795 93.0192C150.148 95.1518 153.154 98.9256 154.743 103.459C158.193 113.282 155.484 124.049 158.805 133.887C159.207 135.075 159.7 136.23 160.283 137.34C160.41 137.587 160.787 137.366 160.657 137.113ZM141.372 93.2576C139.507 92.8157 137.574 92.7368 135.669 92.6067C133.617 92.4655 131.564 92.3261 129.512 92.1849C126.493 91.9777 123.477 91.7741 120.459 91.5706C120.591 91.5174 120.576 91.29 120.409 91.2955C120.317 91.2992 120.228 91.2974 120.136 91.2992C120.284 91.2625 120.431 91.2185 120.578 91.1782C124.429 90.9453 128.287 90.5346 132.042 90.5126C135.071 90.4942 138.185 90.6849 141.158 91.3891C141.229 92.0107 141.301 92.6342 141.372 93.2576ZM100.671 25.2455C100.827 25.0731 100.961 24.8824 101.075 24.6807C101.177 25.1189 101.271 25.5572 101.359 25.9973C101.515 26.7931 101.654 27.5963 101.759 28.4013C100.649 27.842 99.5379 27.29 98.423 26.7454C98.2232 26.6482 98.0233 26.5511 97.8234 26.4539C98.8796 26.4832 99.9597 26.0303 100.671 25.2455ZM59.4458 25.3555C58.672 25.7094 57.8615 25.9771 57.029 26.1531C57.8266 25.8634 58.6335 25.5975 59.4458 25.3555ZM18.6843 65.3009C21.4312 57.6104 25.6048 50.4332 31.126 44.4004C34.1003 41.151 37.4193 38.2263 40.918 35.5546C44.3782 32.914 48.0016 30.4367 51.8652 28.4233C53.158 27.7503 54.4728 27.1488 55.8132 26.6152C56.3853 26.5547 56.952 26.4594 57.5094 26.32C58.6206 26.0413 59.6915 25.603 60.6725 25.0089C61.9946 24.6568 63.3351 24.3653 64.6975 24.1324C69.313 23.3476 74.0329 23.0413 78.7052 22.7791C81.034 22.6489 83.3775 22.5976 85.7026 22.8213C88.0149 23.0432 90.2576 23.5915 92.4342 24.3965C93.8571 24.9227 95.2599 25.5205 96.6462 26.1623C96.6609 26.1917 96.6847 26.2173 96.7214 26.2338C96.8131 26.2705 96.9066 26.2998 97.0001 26.3273C99.4371 27.4679 101.825 28.735 104.19 29.9691C111.442 33.7539 118.553 38.0961 124.269 44.0226C129.844 49.8006 133.612 56.9594 136.069 64.5564C138.543 72.203 139.793 80.187 140.772 88.1434C140.881 89.0181 140.983 89.8928 141.086 90.7693C139.575 90.4227 138.035 90.199 136.498 90.0688C131.912 89.68 127.289 90.1293 122.674 90.4557C122.844 90.3842 123.015 90.3145 123.184 90.2393C124.627 89.5865 125.98 88.7412 127.203 87.7327C128.452 86.7039 129.552 85.4992 130.467 84.1661C131.4 82.8036 132.138 81.3055 132.66 79.7377C133.183 78.1717 133.487 76.5287 133.546 74.8784C133.553 74.6675 133.557 74.4566 133.557 74.2458C133.557 74.1027 133.337 74.1027 133.335 74.2458C133.313 75.8832 133.06 77.5152 132.59 79.0849C132.123 80.6454 131.443 82.1417 130.57 83.5188C129.71 84.8721 128.661 86.1007 127.46 87.1642C126.29 88.1984 124.981 89.0713 123.581 89.7626C123.008 90.0468 122.417 90.2962 121.814 90.5162C120.846 90.5804 119.877 90.6354 118.911 90.6758C120.352 89.7736 121.658 88.6587 122.793 87.3916C124.146 85.8788 125.263 84.1588 126.121 82.3232C127.023 80.396 127.638 78.3477 127.968 76.2482C128.345 73.8368 128.367 71.3833 128.096 68.961C127.825 66.5258 127.264 64.1255 126.473 61.8077C126.374 61.5198 126.273 61.2338 126.169 60.9477C126.118 60.8102 125.896 60.8689 125.945 61.0101C126.754 63.2894 127.361 65.6438 127.696 68.0387C128.034 70.4353 128.096 72.8778 127.814 75.2836C127.564 77.4126 127.031 79.5067 126.2 81.4852C125.423 83.3409 124.386 85.0958 123.108 86.6508C121.836 88.2002 120.327 89.5535 118.612 90.5987C118.555 90.6336 118.498 90.6647 118.442 90.6978C117.598 90.7271 116.755 90.7399 115.913 90.7363C115.212 90.5327 114.527 90.2797 113.861 89.9826C112.882 89.3995 111.932 88.7632 111.019 88.0829C112.719 87.2614 114.27 86.1502 115.625 84.8354C117.024 83.4766 118.216 81.9088 119.19 80.22C120.211 78.4504 120.985 76.5452 121.528 74.5777C122.157 72.2947 122.483 69.931 122.582 67.5674C122.681 65.1836 122.547 62.7924 122.247 60.4269C122.21 60.1354 122.17 59.8438 122.129 59.5541C122.109 59.4129 121.86 59.4459 121.878 59.5871C122.181 61.9251 122.349 64.2851 122.307 66.6432C122.265 68.994 122.014 71.3448 121.465 73.6333C120.983 75.6467 120.272 77.5996 119.3 79.4296C118.392 81.1386 117.268 82.7358 115.933 84.1386C114.607 85.5285 113.076 86.7241 111.374 87.6171C111.18 87.7198 110.984 87.817 110.784 87.9105C110.775 87.9032 110.764 87.8959 110.755 87.8885C107.315 85.2718 104.599 81.9271 102.07 78.4541C100.204 75.8906 98.3075 73.1749 96.1933 70.681C100.616 70.7452 104.74 68.5081 107.865 65.4916C109.475 63.9367 110.867 62.1671 112.13 60.3243C113.443 58.4099 114.64 56.3451 115.117 54.0475C115.689 51.2878 115.302 48.4712 114.809 45.7335C114.771 45.5189 114.508 45.396 114.312 45.4511C114.277 45.4602 114.246 45.4749 114.217 45.4914C114.165 44.9486 114.098 44.4077 114.006 43.8704C113.955 43.5752 113.898 43.28 113.835 42.9866C113.802 42.8362 113.577 42.9004 113.606 43.0489C114.068 45.4291 114.143 47.8771 113.843 50.2829C113.542 52.685 112.86 55.0468 111.818 57.2326C110.815 59.3396 109.478 61.2759 107.865 62.9611C106.312 64.584 104.515 65.9684 102.556 67.0686C100.598 68.167 98.4781 68.9775 96.2831 69.4469C96.0099 69.5056 95.7348 69.5588 95.4598 69.6065C95.3901 69.6193 95.3608 69.667 95.3589 69.7202C94.8712 69.1756 94.3687 68.6474 93.8535 68.134C94.8363 67.7966 95.799 67.395 96.7287 66.9311C97.4603 66.612 98.1773 66.2526 98.8686 65.8529C100.49 64.9159 101.99 63.7661 103.312 62.4422C104.67 61.0816 105.84 59.5358 106.774 57.8543C107.753 56.0921 108.477 54.1868 108.923 52.2211C109.368 50.2554 109.535 48.2236 109.396 46.2102C109.379 45.9663 109.357 45.7225 109.332 45.4786C109.315 45.3245 109.073 45.3209 109.088 45.4786C109.268 47.4608 109.161 49.4669 108.785 51.4216C108.409 53.3763 107.764 55.2797 106.86 57.0548C105.989 58.7619 104.883 60.3408 103.574 61.7399C103.117 62.2276 102.637 62.6916 102.138 63.1335C102.369 62.9098 102.598 62.6824 102.818 62.4477C103.139 62.1066 102.648 61.6152 102.305 61.9342C99.747 64.3199 96.7434 66.216 93.417 67.3272C93.3162 67.3602 93.2428 67.4189 93.1915 67.4885C91.3028 65.7135 89.216 64.1934 86.8304 63.1262C87.8297 62.2863 88.8273 61.4465 89.8266 60.6085C90.7893 59.7998 91.7685 59.0022 92.6377 58.0908C94.2495 56.4001 95.2782 54.3189 96.0062 52.1184C96.4188 50.8715 96.7397 49.6007 97.0533 48.3263C97.167 47.8624 96.4683 47.668 96.3381 48.1283C95.7275 50.2792 95.1279 52.4668 94.0955 54.4601C93.5784 55.4594 92.9586 56.402 92.1976 57.2345C91.7594 57.7131 91.2863 58.1586 90.8022 58.5896C90.9819 58.3255 91.1597 58.0596 91.3284 57.7882C92.3883 56.0884 93.2245 54.2474 93.8021 52.3311C94.1285 51.2474 94.3724 50.1417 94.5264 49.0213C94.5447 48.8819 94.3339 48.8196 94.3119 48.9626C94.0112 50.9265 93.4537 52.8501 92.6524 54.6673C91.9079 56.3598 90.9562 57.9661 89.8266 59.4312C89.7221 59.5193 89.6158 59.6091 89.5112 59.6971C88.3743 60.6543 87.2356 61.6097 86.0987 62.5669C86.0345 62.6201 85.9979 62.6952 85.9795 62.7741C85.5193 62.5944 85.0498 62.4293 84.5676 62.2845C82.5927 61.6922 80.5297 61.5125 78.4797 61.7234C76.116 61.9673 73.8147 62.6109 71.5171 63.1922C70.5947 63.425 69.6742 63.6579 68.7519 63.8908C66.9457 64.3199 65.1394 64.749 63.3351 65.1781C61.362 65.6475 59.3853 66.1078 57.4104 66.5754C57.3572 66.4965 57.282 66.436 57.1867 66.4195C54.1189 65.8951 51.0914 64.2777 49.2962 61.6794C48.2804 60.2087 47.7779 58.5217 47.6496 56.7467C47.5029 54.7058 47.6587 52.6172 47.9338 50.5928C48.1978 48.6509 48.6141 46.7328 49.1569 44.8496C49.2504 44.6497 49.3494 44.4535 49.4503 44.2573C49.5548 44.0538 49.6648 43.8502 49.7767 43.6504C49.85 43.5183 49.6501 43.401 49.575 43.533C49.5474 43.5825 49.5199 43.632 49.4924 43.6815C49.4943 43.3423 48.957 43.2414 48.8213 43.6082C48.075 45.6308 47.5249 47.7285 47.1838 49.8575C46.8464 51.9571 46.641 54.1135 46.7327 56.2406C46.8152 58.1642 47.2351 60.0547 48.2584 61.7032C48.6984 62.4128 49.2266 63.062 49.817 63.6488C49.8555 63.6983 49.8904 63.7496 49.9307 63.7973C50.8897 64.9837 52.155 65.9556 53.6458 66.3535C53.831 66.403 54.018 66.4433 54.2069 66.4745C54.2106 66.4745 54.2142 66.4745 54.2161 66.4745C54.7222 66.6707 55.2411 66.8321 55.7655 66.9678C55.3951 67.0558 55.0247 67.1456 54.6562 67.2355C54.4838 67.2465 54.3114 67.2538 54.1372 67.2557C54.0455 66.9714 53.6641 66.7716 53.3799 67.0429C53.3157 67.1035 53.2497 67.1621 53.1855 67.2208C52.0835 67.1346 50.9906 66.8944 49.9344 66.557C48.7388 66.1756 47.5725 65.6842 46.443 65.1194C45.9589 64.3511 45.6306 63.4856 45.3868 62.6127C45.031 61.3438 44.8055 60.0309 44.6313 58.7271C44.4516 57.3793 44.3471 56.0224 44.3159 54.6636C44.2792 53.1306 44.3397 51.5958 44.4919 50.0702C44.5066 49.9216 44.2774 49.9253 44.2609 50.0702C43.9418 52.8409 43.951 55.6465 44.292 58.4154C44.4571 59.7576 44.679 61.1036 45.02 62.4128C45.2401 63.2563 45.5316 64.0944 45.9497 64.8645C45.4289 64.5913 44.9155 64.3071 44.4131 64.0082C42.8287 63.0675 41.3123 61.9324 40.1845 60.4599C39.0073 58.9251 38.3765 57.0731 38.1546 55.1642C37.8943 52.9307 38.1253 50.6753 38.4114 48.4565C38.4609 48.0659 37.7879 47.9724 37.7182 48.363C37.0104 52.3623 36.6803 56.8897 39.0531 60.4306C40.157 62.0773 41.6974 63.37 43.3605 64.4263C44.5506 65.1836 45.8122 65.8565 47.1123 66.4342C47.7963 67.1108 48.6416 67.6224 49.5951 67.8076C49.7858 67.8443 49.8665 67.5527 49.6758 67.516C49.1037 67.4042 48.5756 67.1676 48.0988 66.8504C48.3977 66.9696 48.6984 67.0851 48.9992 67.1952C49.5639 67.3987 50.1379 67.5766 50.721 67.7214C49.3476 68.2092 47.8788 68.3761 46.4246 68.2477C44.8055 68.1047 43.2175 67.5986 41.811 66.7862C40.4083 65.9757 39.1815 64.8517 38.3142 63.4801C37.2506 61.8004 36.7243 59.8567 36.4108 57.9111C36.0862 55.9014 35.9927 53.8641 35.7451 51.8452C35.7158 51.6068 35.6846 51.3703 35.6516 51.1319C35.6333 51.0054 35.4132 51.0347 35.4279 51.1631C35.6645 53.2168 35.7525 55.2871 36.0294 57.3371C36.2989 59.3396 36.7684 61.3456 37.7586 63.1262C38.5764 64.5968 39.7646 65.829 41.1747 66.7441C42.5647 67.6444 44.16 68.2349 45.7994 68.4641C47.435 68.6933 49.1239 68.5686 50.6898 68.0277C50.8604 67.969 51.0273 67.903 51.1941 67.8351C51.3903 67.8773 51.5884 67.9176 51.7882 67.9525C51.2143 68.0973 50.6385 68.2422 50.0646 68.3907C49.6171 68.5081 49.1715 68.6309 48.7241 68.7538C46.5952 69.1022 44.4442 69.3204 42.2896 69.5331C41.8055 69.4928 41.3233 69.4378 40.8447 69.3644C38.8166 69.0545 36.8307 68.4586 34.9805 67.5692C33.222 66.7239 31.4781 65.6017 30.4017 63.9293C29.2593 62.1525 29.0576 59.9997 28.9458 57.9423C28.9311 57.68 28.9183 57.416 28.9073 57.1538C28.8999 56.9997 28.6615 56.9979 28.6652 57.1538C28.7147 59.2607 28.8009 61.4667 29.7526 63.392C30.6603 65.2294 32.3381 66.5185 34.1113 67.4629C35.9468 68.4402 37.9401 69.126 39.981 69.5148C40.2909 69.5735 40.6008 69.623 40.9144 69.6688C37.9914 69.9604 35.0777 70.2904 32.2281 70.9634C31.0362 70.5563 29.8443 70.1474 28.6505 69.7422C27.9519 69.5056 27.2514 69.2691 26.5509 69.0344C26.4263 68.9922 26.3731 69.1884 26.4959 69.2306C28.26 69.8467 30.0258 70.4573 31.7917 71.0661C31.0362 71.255 30.2862 71.4677 29.5417 71.7116C28.9641 71.9023 28.3975 72.115 27.84 72.346C27.2991 72.1132 26.7728 71.8436 26.2759 71.5282C25.8376 71.2495 25.4177 70.9432 25.0216 70.6058C24.9226 70.5215 24.7778 70.6627 24.8786 70.7489C25.6818 71.4493 26.5858 72.0233 27.5522 72.4652C26.4024 72.9603 25.3022 73.5453 24.2606 74.2219C22.878 73.2794 21.6788 72.0673 20.8683 70.5912C20.3622 69.667 20.0229 68.6566 19.9129 67.6059C19.8983 67.4647 19.6764 67.4592 19.6874 67.6059C19.8304 69.524 20.7601 71.288 22.0474 72.6889C22.6396 73.3326 23.3071 73.89 24.0223 74.3814C23.0082 75.0599 22.0547 75.8282 21.1727 76.6846C21.1305 76.6387 21.0847 76.5966 21.0425 76.5507C20.5877 76.0575 20.1788 75.5238 19.8176 74.9572C19.7369 74.8307 19.537 74.9462 19.6159 75.0746C20.0101 75.72 20.4667 76.3215 20.9783 76.8734C20.5896 77.2604 20.2137 77.6638 19.8561 78.0855C17.3751 81.0103 15.6697 84.5365 14.6062 88.2094C14.7144 80.4143 16.064 72.6357 18.6843 65.3009ZM25.3004 79.4975C23.9177 78.9345 22.647 78.1057 21.5669 77.0733C22.4709 76.1913 23.452 75.3955 24.5064 74.695C25.3554 75.2286 26.2612 75.676 27.1909 76.0556C27.9996 76.3857 28.8266 76.6662 29.6609 76.9193C28.1059 77.5996 26.6445 78.4724 25.3004 79.4975ZM29.4922 77.2732C29.4445 77.3172 29.3969 77.3631 29.3492 77.4089C29.2997 77.3906 29.2392 77.3979 29.2025 77.4547C29.153 77.5354 29.1035 77.6161 29.0521 77.6968C28.4507 78.2982 27.8932 78.9437 27.3688 79.6203C27.2588 79.7634 27.1524 79.9064 27.0442 80.0513C26.5491 79.9376 26.065 79.7909 25.5901 79.613C26.804 78.6961 28.1078 77.9058 29.4922 77.2732ZM24.8713 74.6051C24.8309 74.5813 24.7943 74.5538 24.7539 74.53C25.5644 74.0092 26.4152 73.5434 27.3064 73.14C27.6163 72.9988 27.9299 72.8686 28.2453 72.7439C28.7624 72.9402 29.2923 73.1015 29.8333 73.217C30.3522 73.3289 30.8803 73.4022 31.4103 73.4389C31.5606 73.4499 31.5588 73.217 31.4103 73.206C30.4402 73.1382 29.4849 72.9346 28.568 72.6156C29.925 72.0948 31.3259 71.6969 32.747 71.3815C33.1321 71.5135 33.5154 71.6474 33.9004 71.7794C34.5991 72.0196 35.2977 72.258 35.9964 72.4982C36.1486 72.5514 36.2146 72.3093 36.0624 72.258C35.1107 71.9316 34.1572 71.6089 33.2055 71.2825C35.1712 70.8699 37.1736 70.6058 39.1558 70.384C40.7512 70.2043 42.352 70.0521 43.9491 69.8797C44.2664 69.8815 44.5836 69.8779 44.899 69.865C42.528 70.6278 40.1974 71.5062 37.9474 72.5789C37.2726 72.8998 36.6051 73.2445 35.945 73.6076C35.813 73.6535 35.681 73.6975 35.5508 73.7451C34.0471 74.2879 32.5802 74.9609 31.2544 75.8594C30.8528 76.1308 30.4696 76.4242 30.101 76.7341C30.0808 76.7433 30.0588 76.7506 30.0387 76.7579C28.2471 76.2243 26.4776 75.5752 24.8713 74.6051ZM45.9552 69.7972C46.0487 69.7898 46.1404 69.7843 46.2339 69.7733C47.6037 69.6358 48.9588 69.3644 50.2754 68.9647C50.545 68.9115 50.8145 68.8547 51.0841 68.796C47.0499 71.2935 41.9742 71.8253 37.4046 73.1455C40.1479 71.7812 43.0195 70.7049 45.9552 69.7972ZM53.3891 68.2349C53.4441 68.4402 53.6348 68.6126 53.9007 68.5466C58.6243 67.362 63.3498 66.1811 68.0715 64.9874C70.3765 64.4043 72.6778 63.79 74.9938 63.2472C77.2181 62.7264 79.4864 62.3578 81.7748 62.6127C85.6366 63.0418 89.1427 65.1102 92.0161 67.6334C95.137 70.3748 97.5795 73.7433 99.9909 77.099C102.45 80.5189 104.927 83.9772 108.068 86.8158C109.662 88.2553 111.395 89.5297 113.228 90.6372C111.319 90.5126 109.418 90.254 107.529 89.7864C105.184 89.207 102.923 88.2828 100.924 86.9148C98.7769 85.4442 97.0661 83.4766 95.5423 81.3844C92.6359 77.3906 90.153 72.8448 85.7943 70.2208C83.6764 68.9463 81.2871 68.3632 78.8207 68.6236C75.9877 68.9243 73.3526 70.0686 70.6204 70.7965C65.8546 72.0636 60.4855 72.2617 55.9031 70.2098C54.8872 69.755 53.93 69.1866 53.0352 68.5228C53.1525 68.4292 53.2735 68.3339 53.3891 68.2349ZM96.0777 69.7642C98.137 69.3534 100.136 68.6493 102.002 67.6866C104.027 66.6432 105.897 65.3009 107.531 63.7129C109.213 62.0791 110.634 60.1812 111.717 58.1018C112.849 55.9325 113.626 53.5781 114.019 51.1631C114.189 50.116 114.283 49.0543 114.307 47.9926C114.505 49.6741 114.609 51.3739 114.376 53.0463C114.065 55.2926 113.036 57.306 111.804 59.1819C109.464 62.7502 106.556 66.1554 102.708 68.1413C100.662 69.2012 98.3864 69.8155 96.0777 69.7642ZM14.608 90.4594C15.3598 87.0377 16.6324 83.7113 18.5413 80.7682C19.3665 79.4957 20.3127 78.3221 21.3689 77.2659C22.4233 78.2964 23.6702 79.1289 25.0326 79.7065C23.4025 80.9901 21.9465 82.5011 20.7069 84.1734C20.3328 84.3898 19.9624 84.6117 19.5975 84.8446C19.1391 85.1361 18.6898 85.4442 18.2498 85.7633C18.1159 85.8604 18.2406 86.0842 18.3818 85.9888C19.0016 85.5652 19.6324 85.16 20.2778 84.7749C19.9331 85.27 19.6067 85.7779 19.2986 86.2969C16.1337 91.6568 15.2278 98.0564 16.0585 104.174C15.1856 99.6517 14.685 95.062 14.608 90.4594ZM18.7045 114.461C18.2223 112.959 17.7767 111.442 17.3732 109.917C17.7712 111.166 18.2314 112.398 18.7485 113.606C19.9973 116.524 21.4917 119.329 22.7588 122.239C23.7912 124.614 24.6677 127.084 25.0748 129.644C22.5406 124.768 20.3879 119.696 18.7045 114.461ZM24.0773 124.726C23.0357 121.852 21.6403 119.124 20.3329 116.368C18.9502 113.452 17.7015 110.489 16.9552 107.34C15.479 101.128 15.7321 94.3578 18.4606 88.5157C19.1318 87.078 19.9514 85.7009 20.894 84.4137C21.6586 83.9772 22.4398 83.5701 23.2393 83.1997C23.727 82.9724 24.2221 82.7596 24.7209 82.5579C24.8988 82.4864 24.8218 82.193 24.6402 82.2664C23.5143 82.7193 22.4141 83.2364 21.3487 83.8159C22.5095 82.3306 23.8407 80.9791 25.3205 79.8202C25.823 80.0164 26.3382 80.1778 26.8627 80.3025C25.8505 81.6833 24.9354 83.1411 24.0406 84.5952C22.9862 86.306 22.0162 88.0902 21.4019 90.0119C19.8928 94.7337 20.5841 99.4959 21.9814 104.128C22.7478 108.565 23.9434 112.961 25.0546 117.27C25.9165 120.609 26.7838 123.948 27.6897 127.277C27.5815 129.286 27.3413 131.292 27.0662 133.293C26.5143 132.325 25.9788 131.347 25.4562 130.361C25.2178 128.448 24.7466 126.572 24.0773 124.726ZM24.488 85.5927C23.4722 87.652 22.6103 89.7772 22.0254 92.0052C21.8035 92.8487 21.6311 93.7032 21.5046 94.5632C21.5284 94.136 21.5614 93.7069 21.6128 93.2741C21.9483 90.4814 23.0889 87.9747 24.488 85.5927ZM22.4966 105.756C23.4612 108.631 24.6329 111.448 25.6488 114.167C25.7368 114.402 25.8248 114.639 25.911 114.875C26.7563 117.402 27.4385 119.973 27.6512 122.656C27.7539 123.941 27.7667 125.226 27.7208 126.508C27.488 125.65 27.2569 124.79 27.0277 123.93C25.8541 119.518 24.6824 115.101 23.5987 110.665C23.2008 109.038 22.8249 107.403 22.4966 105.756ZM28.0527 154.872C28.271 155.587 28.5093 156.293 28.7679 156.994C26.5216 153.121 25.1958 148.716 24.996 144.233C24.8419 140.787 25.4856 137.382 25.6084 133.948C25.6433 132.959 25.6139 131.982 25.5222 131.015C25.7661 131.467 26.0118 131.918 26.2612 132.367C26.5069 132.807 26.7563 133.247 27.0075 133.683C26.793 135.224 26.5638 136.76 26.3676 138.295C25.7349 143.23 25.3664 148.441 27.2092 153.176C27.4256 153.733 27.6713 154.28 27.9427 154.813C27.9684 154.863 28.0106 154.877 28.0527 154.872ZM26.617 139.278C26.065 144.084 26.4501 149.061 27.7337 153.775C25.8835 149.404 25.9568 144.565 26.4739 139.9C26.6885 137.963 26.9764 136.031 27.2477 134.096C27.3028 134.191 27.3614 134.285 27.4164 134.38C27.1121 136.009 26.8058 137.637 26.617 139.278ZM27.4843 134.026C27.4238 133.922 27.3614 133.819 27.3009 133.717C27.5577 131.868 27.7924 130.016 27.9244 128.159C28.0271 128.536 28.1334 128.912 28.238 129.288C28.0656 130.876 27.7795 132.451 27.4843 134.026ZM28.304 128.635C28.1939 128.236 28.0839 127.836 27.9739 127.434C28.0307 126.439 28.0564 125.443 28.0362 124.442C28.0124 123.211 27.9024 121.992 27.719 120.785C28.1334 122.601 28.3938 124.447 28.4048 126.321C28.4103 127.097 28.37 127.869 28.304 128.635ZM126.105 180.625C126.02 184.637 126.141 188.651 126.251 192.661C126.361 196.657 126.464 200.654 126.347 204.652C126.228 208.708 125.798 212.725 125.228 216.741C124.665 220.704 124.025 224.661 123.706 228.653C123.702 228.69 123.701 228.726 123.699 228.763C123.121 227.826 122.496 226.915 121.86 226.018C121.168 225.044 120.453 224.089 119.712 223.152C118.229 221.274 116.645 219.473 114.972 217.761C113.309 216.057 111.563 214.423 109.717 212.922C107.925 211.467 106.005 210.14 103.902 209.177C101.87 208.247 99.6553 207.67 97.4072 207.778C97.1743 207.789 96.9414 207.809 96.7104 207.835C95.3057 206.98 93.6866 206.458 92.0289 206.678C91.1542 206.793 90.3016 207.107 89.5993 207.646C89.4269 207.778 89.2637 207.921 89.1152 208.077C88.952 208.247 88.8071 208.451 88.8273 208.7C88.8474 208.942 89.0033 209.139 89.1555 209.318C89.315 209.505 89.4801 209.689 89.6433 209.87C90.9892 211.357 92.4672 212.722 94.0515 213.948C95.634 215.172 97.3228 216.27 99.0997 217.189C99.1492 217.214 99.1987 217.236 99.2464 217.26C99.2409 217.262 99.2354 217.266 99.2299 217.267C99.063 217.335 99.1364 217.61 99.3051 217.541C99.3986 217.502 99.4903 217.462 99.582 217.42C99.6351 217.444 99.6865 217.467 99.7396 217.491C99.6993 217.546 99.6865 217.623 99.7378 217.689C101.502 219.969 103.182 222.31 104.771 224.712C106.341 227.081 107.775 229.529 109.269 231.944C110.615 234.119 112.064 236.219 113.727 238.164C115.233 239.927 116.863 241.575 118.541 243.17C118.768 243.387 118.999 243.601 119.23 243.818C118.917 243.572 118.601 243.324 118.288 243.079C116.271 241.5 114.29 239.875 112.374 238.174C108.573 234.798 104.99 231.183 101.524 227.465C94.5686 219.998 88.0883 212.104 81.1257 204.642C77.7737 201.05 74.3043 197.561 70.6351 194.291C74.8874 197.225 79.435 199.662 84.5584 200.709C88.6787 201.551 93.0264 201.435 96.9616 199.864C100.794 198.333 104.018 195.654 107.051 192.92C112.752 187.781 118.443 182.445 122.932 176.183C122.316 181.298 121.656 186.408 120.95 191.511C120.213 196.829 119.428 202.141 118.592 207.446C118.359 208.919 118.124 210.393 117.884 211.864C117.64 213.364 117.371 214.86 117.164 216.365C117.142 216.523 117.378 216.598 117.409 216.433C117.879 214.069 118.233 211.68 118.603 209.298C119.793 211.031 121.385 212.482 123.224 213.499C123.763 213.798 124.324 214.053 124.909 214.251C125.037 214.295 125.129 214.086 125.003 214.029C124.027 213.602 123.081 213.116 122.204 212.509C121.341 211.909 120.55 211.205 119.852 210.419C119.448 209.966 119.08 209.485 118.742 208.981C118.72 208.948 118.691 208.931 118.662 208.922C118.689 208.752 118.715 208.579 118.742 208.409C119.162 205.757 119.571 203.104 119.967 200.449C120.761 195.125 121.504 189.793 122.199 184.455C122.58 181.53 122.945 178.602 123.295 175.674C123.325 175.631 123.356 175.589 123.387 175.547C124.786 173.539 126.048 171.427 127.104 169.217C126.429 172.974 126.185 176.814 126.105 180.625ZM124.728 102.806C124.871 103.092 125.014 103.38 125.155 103.668C127.11 107.656 128.641 111.749 129.191 116.177C129.768 120.82 129.701 125.549 129.823 130.218C129.95 135.037 130.076 139.856 130.203 144.677C130.324 149.318 130.557 153.997 129.965 158.616C129.448 162.658 128.175 166.545 126.312 170.163C125.397 171.938 124.359 173.638 123.229 175.274C123.147 175.257 123.042 175.303 123.03 175.413C123.022 175.472 123.015 175.529 123.008 175.587C119.709 180.293 115.647 184.475 111.492 188.412C108.54 191.209 105.573 194.086 102.285 196.49C98.81 199.029 94.9115 200.722 90.5711 200.916C82.1764 201.294 74.6894 197.027 68.1651 192.151C66.953 191.132 65.7207 190.138 64.4628 189.175C63.8063 188.673 63.1389 188.185 62.4696 187.703C60.5148 186.135 58.5784 184.543 56.6806 182.913C53.3799 180.08 50.2131 177.063 47.4992 173.656C44.7486 170.204 42.5097 166.369 40.5403 162.427C38.5085 158.361 36.7243 154.173 35.1088 149.926C32.7379 143.692 30.7483 137.323 28.9348 130.905C29.0099 130.392 29.0778 129.877 29.1365 129.361C29.3675 127.288 29.3162 125.239 29.0484 123.217C31.0123 122.518 33.0496 122.012 35.107 121.686C37.3973 121.322 39.7261 121.194 42.0421 121.289C44.3599 121.387 46.6667 121.711 48.9185 122.267C50.0407 122.544 51.1483 122.876 52.2357 123.264C53.3487 123.662 54.4361 124.126 55.5382 124.55C57.6671 125.369 59.9501 126.101 62.2569 125.749C62.5429 125.705 62.8198 125.63 63.0967 125.551C63.2636 125.505 63.1921 125.245 63.0252 125.292C62.277 125.502 61.5216 125.573 60.7661 125.551C61.0595 125.423 61.3437 125.28 61.6187 125.115C61.8314 124.986 62.0387 124.849 62.2385 124.7C62.3779 124.596 62.5264 124.489 62.6548 124.365C62.7923 124.498 62.9298 124.63 63.0637 124.766C63.1682 124.873 63.3296 124.709 63.2269 124.603C63.0894 124.462 62.9463 124.324 62.8051 124.187C62.8253 124.121 62.7501 124.053 62.6823 124.066C62.3595 123.754 62.0258 123.455 61.6866 123.162C61.7141 123.116 61.7434 123.07 61.7691 123.024C61.8333 122.91 61.6701 122.821 61.5967 122.923C61.5729 122.956 61.549 122.989 61.5252 123.022C60.9641 122.544 60.381 122.093 59.7795 121.665C59.8052 121.607 59.8327 121.55 59.8565 121.489C59.8969 121.392 59.7337 121.324 59.6878 121.418C59.6658 121.462 59.6438 121.508 59.6218 121.552C58.8737 121.029 58.0999 120.545 57.3004 120.107C55.1182 118.909 52.7619 118.022 50.3286 117.494C47.8843 116.964 45.3648 116.802 42.8728 117.024C40.3459 117.25 37.8557 117.851 35.5049 118.803C33.4365 119.639 31.4781 120.739 29.6976 122.083C29.6737 122.08 29.6517 122.076 29.6279 122.072C29.5509 122.061 29.5179 122.146 29.538 122.208C29.3638 122.342 29.1878 122.476 29.0173 122.615C29.0008 122.628 28.9861 122.643 28.9696 122.656C28.6872 120.783 28.2251 118.933 27.6365 117.101C25.5882 110.733 22.1427 104.381 21.5578 97.6383C21.5578 96.4318 21.6586 95.2233 21.8695 94.0223C22.5865 89.9624 24.3358 86.1923 26.3694 82.6148C26.4483 82.4956 26.5253 82.3782 26.6041 82.259C27.5576 80.8196 28.5827 79.415 29.8168 78.2029C30.4127 77.6711 31.0289 77.1613 31.6652 76.6772C32.505 76.0996 33.4072 75.6119 34.3405 75.1974C40.1167 72.6248 46.9821 72.7843 52.2852 69.0912C52.4044 69.0087 52.5181 68.9207 52.6354 68.8326C52.6409 68.8382 52.6446 68.8418 52.6501 68.8473C56.5302 71.8051 61.5656 72.6321 66.3314 72.1517C68.8692 71.8968 71.286 71.2293 73.7102 70.461C76.4002 69.6083 79.2333 68.7501 82.0719 69.3498C87.1458 70.4225 90.4226 75.0141 93.1676 79.028C94.5961 81.1185 96.0264 83.2327 97.7978 85.0536C99.4573 86.759 101.425 88.1269 103.601 89.0896C107.071 90.6244 110.7 91.1929 114.391 91.3102C114.996 91.644 115.609 91.9649 116.234 92.2619C116.188 92.2839 116.148 92.3096 116.113 92.3426C115.926 92.5296 115.957 92.7937 116.113 92.9826C117.754 94.9795 119.393 96.9764 121.034 98.9733C122.149 100.332 123.286 101.777 124.728 102.806ZM33.2641 121.453C32.8259 121.262 32.3895 121.068 31.942 120.897C32.3968 120.622 32.8589 120.358 33.332 120.112C33.3375 120.12 33.3412 120.127 33.3485 120.132C33.8729 120.571 34.4249 120.98 34.9713 121.39C35.0373 121.44 35.14 121.401 35.1785 121.335C35.2244 121.258 35.1895 121.178 35.1235 121.128C34.6082 120.743 34.093 120.356 33.5594 119.995C33.9646 119.788 34.3754 119.588 34.7916 119.403C37.0819 118.385 39.5281 117.699 42.0164 117.391C42.4052 117.343 42.7939 117.307 43.1827 117.277C43.1772 117.301 43.179 117.327 43.1937 117.354C43.8208 118.497 44.4204 119.652 44.9375 120.848C45.0127 121.022 45.2676 120.871 45.1924 120.699C44.679 119.513 44.0958 118.35 43.3954 117.263C45.4106 117.125 47.4387 117.23 49.4264 117.587C51.8451 118.022 54.2014 118.81 56.3963 119.916C57.4782 120.461 58.5198 121.082 59.5118 121.774C58.9929 122.833 58.4703 123.89 57.8945 124.92C57.8596 124.983 57.889 125.041 57.9366 125.069C57.3517 124.906 56.7759 124.713 56.213 124.506C56.1286 124.475 56.0443 124.442 55.9599 124.41C55.9838 124.383 55.9984 124.344 55.9874 124.299C55.7527 123.244 55.6464 122.177 55.5968 121.099C55.5895 120.954 55.375 120.954 55.3713 121.099C55.353 122.181 55.496 123.268 55.727 124.322C54.7772 123.959 53.8383 123.571 52.8885 123.211C52.4759 123.055 52.0596 122.91 51.6415 122.771C51.6415 122.767 51.6434 122.764 51.6415 122.76C51.3812 121.185 50.9081 119.63 50.1636 118.216C50.1012 118.097 49.9344 118.202 49.9857 118.321C50.5945 119.72 51.0731 121.168 51.3445 122.672C50.765 122.485 50.1801 122.311 49.5896 122.155C47.3653 121.566 45.0805 121.201 42.7847 121.06C41.448 120.978 40.1057 120.974 38.7689 121.042C38.8404 120.992 38.8753 120.893 38.7909 120.822C37.9841 120.127 37.1388 119.458 36.2219 118.913C36.0899 118.834 35.9854 119.029 36.1027 119.115C36.9407 119.738 37.7842 120.352 38.5764 121.035C38.5837 121.042 38.5929 121.044 38.6021 121.049C37.687 121.101 36.7757 121.187 35.868 121.308C34.2067 121.532 32.56 121.873 30.9482 122.333C30.9335 122.304 30.9078 122.28 30.8748 122.274C30.6089 122.225 30.343 122.181 30.0772 122.137C30.5961 121.755 31.1279 121.392 31.6762 121.053C32.1456 121.291 32.6297 121.499 33.1119 121.709C33.1871 121.742 33.2733 121.731 33.3191 121.654C33.3558 121.596 33.3393 121.486 33.2641 121.453ZM58.7582 125.113C59.1011 124.733 59.4238 124.337 59.73 123.926C60.0362 123.514 60.3315 123.085 60.5644 122.624C60.5772 122.599 60.5772 122.575 60.5735 122.555C60.8504 122.769 61.1236 122.987 61.3895 123.213C60.8302 123.97 60.2013 124.663 59.4366 125.225C59.3706 125.274 59.3779 125.357 59.4165 125.406C58.9379 125.325 58.4629 125.215 57.9935 125.085C58.0283 125.087 58.065 125.072 58.087 125.034C58.6683 124.014 59.2111 122.973 59.6805 121.896C59.9501 122.087 60.216 122.282 60.4782 122.483C60.4488 122.483 60.4177 122.494 60.3957 122.527C60.1096 122.94 59.8419 123.362 59.5466 123.769C59.2496 124.178 58.9305 124.57 58.5931 124.948C58.4923 125.06 58.6573 125.226 58.7582 125.113ZM61.5656 123.363C61.8553 123.613 62.1413 123.868 62.4201 124.13C62.4421 124.152 62.4641 124.174 62.4861 124.194C62.3577 124.295 62.2349 124.409 62.1047 124.508C61.9121 124.652 61.7123 124.788 61.505 124.913C61.1035 125.157 60.6799 125.357 60.2398 125.516C60.0087 125.496 59.7795 125.465 59.5503 125.428C59.5522 125.428 59.5521 125.428 59.554 125.426C60.326 124.863 61.0411 124.174 61.5656 123.363ZM30.5264 122.461C30.0698 122.599 29.6151 122.742 29.164 122.899C29.12 122.914 29.076 122.932 29.0301 122.947C29.2942 122.733 29.5619 122.524 29.8351 122.32C30.0662 122.371 30.2954 122.417 30.5264 122.461ZM123.605 100.587C122.975 99.9195 122.393 99.208 121.812 98.4983C121.014 97.5283 120.217 96.5564 119.419 95.5864C118.601 94.5907 117.783 93.595 116.964 92.5993C117.327 92.7625 117.692 92.922 118.06 93.0724C118.816 93.3823 119.582 93.6629 120.358 93.9159C121.354 96.1842 122.483 98.3847 123.605 100.587ZM141.445 93.9159C141.464 94.0754 141.717 94.0773 141.698 93.9159C141.687 93.8261 141.678 93.7362 141.667 93.6464C142.691 93.9269 143.677 94.3193 144.609 94.8603C145.922 95.6213 147.09 96.6133 148.1 97.7429C150.253 100.149 151.648 103.121 152.453 106.229C153.304 109.515 153.539 112.915 153.647 116.298C152.754 113.46 151.722 110.659 150.632 107.903C149.8 105.796 148.932 103.693 147.964 101.643C147.126 99.8663 146.11 98.0839 144.579 96.8095C144.374 96.639 144.163 96.4813 143.948 96.3346C145.879 97.1542 147.662 98.359 148.96 100.024C149.145 100.261 149.318 100.508 149.481 100.761C149.569 100.897 149.783 100.772 149.697 100.635C148.459 98.634 146.55 97.1762 144.425 96.2154C143.648 95.8633 142.845 95.5791 142.029 95.3444C140.684 94.8401 139.24 94.6311 137.773 94.565C137.611 94.5504 137.448 94.532 137.287 94.5192C134.153 94.2772 131.008 94.4624 127.871 94.3542C126.798 94.3175 125.734 94.2313 124.676 94.0975C123.625 93.9012 122.578 93.6537 121.537 93.3456C121.08 93.2099 120.627 93.0651 120.178 92.911C120.092 92.7057 120.004 92.5003 119.921 92.2931C119.863 92.1482 119.626 92.2124 119.685 92.3573C119.745 92.5058 119.808 92.6543 119.872 92.801C118.851 92.4398 117.847 92.029 116.866 91.5706C120.521 91.8273 124.176 92.0877 127.83 92.3481C129.858 92.493 131.885 92.6342 133.913 92.7772C135.893 92.9165 137.897 92.9844 139.863 93.2759C140.384 93.353 140.895 93.4557 141.401 93.584C141.422 93.6922 141.434 93.8041 141.445 93.9159Z" fill="#F364AB"/>
<path d="M84.4724 110.182C84.0947 111.819 83.5207 113.398 82.6882 114.862C82.4535 115.272 82.2004 115.672 81.9309 116.061C81.8282 116.207 82.0684 116.347 82.1693 116.2C83.1338 114.81 83.8746 113.268 84.3459 111.642C84.4797 111.179 84.5898 110.71 84.6705 110.235C84.6925 110.109 84.5017 110.05 84.4724 110.182Z" fill="#F364AB"/>
<path d="M82.6527 111.772C82.3079 113.178 81.8789 114.563 81.3214 115.901C80.9675 115.206 80.7988 114.44 80.7988 113.659C80.7988 113.539 80.6228 113.541 80.6154 113.659C80.5568 114.526 80.7768 115.397 81.1949 116.154C81.2627 116.277 81.4424 116.178 81.3966 116.057C81.4498 116.064 81.5084 116.046 81.5341 115.984C82.0952 114.64 82.5445 113.248 82.8324 111.821C82.8581 111.704 82.6802 111.653 82.6527 111.772Z" fill="#F364AB"/>
<path d="M58.1752 121.068C57.9423 122.302 57.7442 123.543 57.5389 124.783C57.5114 124.944 57.7589 125.014 57.7864 124.851C57.9936 123.611 58.2063 122.371 58.3879 121.126C58.4062 120.991 58.2027 120.928 58.1752 121.068Z" fill="#F364AB"/>
<path d="M56.8727 120.375C56.8874 120.261 56.6912 120.233 56.671 120.347C56.418 121.757 56.4455 123.204 56.6912 124.614C56.7187 124.774 56.9608 124.706 56.9333 124.548C56.693 123.167 56.6949 121.763 56.8727 120.375Z" fill="#F364AB"/>
<path d="M54.5508 119.566C54.5325 119.426 54.3124 119.419 54.3252 119.566C54.4463 121.014 54.6608 122.457 54.9194 123.888C54.9506 124.064 55.2201 123.99 55.1889 123.812C54.934 122.404 54.736 120.987 54.5508 119.566Z" fill="#F364AB"/>
<path d="M53.2471 119.375C53.2031 119.241 52.994 119.296 53.0325 119.434C53.3919 120.721 53.6615 122.032 53.7954 123.363C53.8137 123.543 54.0961 123.545 54.0778 123.363C53.9421 122.01 53.6762 120.668 53.2471 119.375Z" fill="#F364AB"/>
<path d="M52.8049 122.674C52.5207 121.344 52.1906 120.026 51.7799 118.731C51.7377 118.595 51.5287 118.65 51.5653 118.79C51.9046 120.105 52.2328 121.425 52.5152 122.754C52.5555 122.943 52.8453 122.864 52.8049 122.674Z" fill="#F364AB"/>
<path d="M50.1301 121.949C49.6588 120.75 49.1179 119.573 48.4724 118.456C48.3936 118.321 48.1955 118.44 48.2652 118.577C48.8373 119.707 49.3764 120.851 49.8385 122.03C49.9101 122.21 50.2016 122.131 50.1301 121.949Z" fill="#F364AB"/>
<path d="M48.6545 121.515C48.0604 120.31 47.3581 119.159 46.5164 118.112C46.4357 118.011 46.2597 118.145 46.3367 118.251C47.1087 119.337 47.8201 120.464 48.4124 121.658C48.4913 121.819 48.7333 121.676 48.6545 121.515Z" fill="#F364AB"/>
<path d="M46.8881 121.307C46.4022 119.994 45.7861 118.727 44.9939 117.572C44.9151 117.458 44.7335 117.559 44.8069 117.682C45.5074 118.867 46.1327 120.093 46.6131 121.384C46.6773 121.553 46.9523 121.48 46.8881 121.307Z" fill="#F364AB"/>
<path d="M43.7302 120.786C43.1379 119.704 42.4961 118.647 41.77 117.648C41.6857 117.533 41.4949 117.637 41.5756 117.762C42.2376 118.803 42.8831 119.852 43.4753 120.934C43.567 121.103 43.8219 120.952 43.7302 120.786Z" fill="#F364AB"/>
<path d="M41.8742 120.623C41.3937 119.888 40.8766 119.173 40.3008 118.509C40.2073 118.403 40.0148 118.548 40.1028 118.663C40.6272 119.353 41.1443 120.05 41.6193 120.774C41.722 120.932 41.9805 120.783 41.8742 120.623Z" fill="#F364AB"/>
<path d="M40.2314 120.598C39.5621 119.929 38.8616 119.291 38.1098 118.717C38.0034 118.636 37.8695 118.812 37.9667 118.9C38.6617 119.524 39.3567 120.151 40.0168 120.811C40.1543 120.95 40.3689 120.736 40.2314 120.598Z" fill="#F364AB"/>
<path d="M36.842 120.916C36.3231 120.341 35.7161 119.816 35.0248 119.46C34.8928 119.393 34.7901 119.574 34.9093 119.658C35.5309 120.095 36.1195 120.564 36.6293 121.131C36.7577 121.276 36.9704 121.061 36.842 120.916Z" fill="#F364AB"/>
<path d="M38.7555 35.4264C37.8221 34.2492 37.0446 32.9509 36.4358 31.5775C36.3845 31.462 36.2176 31.5628 36.2653 31.6765C36.8668 33.0775 37.6534 34.3867 38.5978 35.5823C38.6876 35.696 38.8435 35.5365 38.7555 35.4264Z" fill="#F364AB"/>
<path d="M47.5066 29.1419C45.7078 28.7165 44.3856 26.9818 44.2536 25.1664C44.2151 24.6457 44.2775 24.1267 44.4462 23.6335C44.4938 23.4941 44.272 23.4336 44.2243 23.5729C43.5935 25.4232 44.4315 27.5594 45.9938 28.6725C46.4321 28.9842 46.9308 29.2098 47.4571 29.3234C47.5745 29.3491 47.624 29.1712 47.5066 29.1419Z" fill="#F364AB"/>
<path d="M98.557 19.7135C98.2453 21.395 97.5412 22.9885 96.4996 24.3455C96.4244 24.4445 96.5913 24.5398 96.6665 24.4427C97.7154 23.0729 98.4268 21.4592 98.7257 19.7594C98.7459 19.6494 98.5772 19.6017 98.557 19.7135Z" fill="#F364AB"/>
<path d="M87.3505 13.018C87.3377 12.9025 87.158 12.9006 87.169 13.018C87.4 15.4513 87.0241 17.9305 86.0706 20.1823C85.801 20.8167 85.4856 21.431 85.1299 22.0197C85.0639 22.1297 85.2344 22.2287 85.3004 22.1187C86.5749 20.0117 87.3047 17.5876 87.4147 15.1286C87.4459 14.4244 87.4239 13.7185 87.3505 13.018Z" fill="#F364AB"/>
<path d="M92.1888 13.262C92.1704 13.1428 91.9907 13.1941 92.0072 13.3115C92.3703 15.8126 91.712 18.4275 90.2597 20.4904C89.8471 21.0754 89.3703 21.6127 88.8386 22.0912C88.7377 22.1811 88.8862 22.3278 88.9871 22.2398C90.907 20.5124 92.0897 18.0241 92.2786 15.4532C92.3336 14.7216 92.3006 13.9881 92.1888 13.262Z" fill="#F364AB"/>
<path d="M61.6683 23.3531C60.4342 22.8727 59.3578 22.0237 58.5528 20.9767C57.7478 19.9296 57.1996 18.6845 56.9905 17.3789C56.8713 16.6363 56.8677 15.8734 56.9887 15.1308C57.0089 15.0079 56.8218 14.9529 56.7998 15.0776C56.5559 16.4346 56.7228 17.8428 57.2271 19.1209C57.7295 20.3954 58.5455 21.5506 59.6091 22.4216C60.2105 22.913 60.8798 23.3091 61.6041 23.5897C61.7508 23.6502 61.8168 23.41 61.6683 23.3531Z" fill="#F364AB"/>
<path d="M59.3469 24.6001C57.7955 24.8769 56.2167 24.3983 54.9056 23.5713C53.523 22.7003 52.4466 21.4387 51.5279 20.1056C51.0017 19.3428 50.5212 18.5507 50.039 17.7603C49.9711 17.6485 49.7969 17.7493 49.8629 17.863C50.7211 19.3281 51.5995 20.8006 52.7474 22.064C53.8366 23.2633 55.1954 24.2443 56.7668 24.6899C57.6287 24.9338 58.5309 24.998 59.4129 24.8403C59.5706 24.8109 59.5046 24.5707 59.3469 24.6001Z" fill="#F364AB"/>
<path d="M84.6106 126.052C87.7077 123.971 92.226 122.639 95.9227 123.144C102.509 124.042 109.479 120.564 112.723 114.762C112.575 118.541 109.756 121.829 106.362 123.499C102.968 125.17 99.0767 125.485 95.2938 125.507C91.5108 125.529 87.0458 125.72 84.6106 126.052Z" fill="#F364AB"/>
<path d="M63.0973 130.718C59.9745 130.572 56.1622 131.248 53.5748 133.005C48.545 136.421 41.7438 137.054 36.1693 134.626C39.5213 138.125 45.1453 138.354 49.7754 136.926C54.4074 135.499 59.1511 132.945 63.0973 130.718Z" fill="#F364AB"/>
<path d="M110.082 116.457C109.206 118.449 107.825 120.141 106.14 121.507C105.92 121.685 106.211 122.067 106.446 121.903C108.28 120.62 109.695 118.797 110.588 116.753C110.737 116.412 110.234 116.114 110.082 116.457Z" fill="#F364AB"/>
<path d="M107.416 117.411C106.517 119.76 104.951 121.784 103.013 123.374C102.804 123.545 103.081 123.91 103.305 123.752C105.454 122.221 107.049 120.028 107.983 117.569C108.118 117.213 107.55 117.061 107.416 117.411Z" fill="#F364AB"/>
<path d="M105.125 118.347C104.285 120.96 102.261 123.107 99.7449 124.178C99.5597 124.257 99.6935 124.578 99.8824 124.506C102.574 123.477 104.665 121.204 105.516 118.455C105.593 118.205 105.204 118.101 105.125 118.347Z" fill="#F364AB"/>
<path d="M103.179 118.851C102.138 121.044 100.315 122.771 98.1382 123.822C97.953 123.912 98.0869 124.24 98.2813 124.16C100.603 123.193 102.464 121.325 103.518 119.049C103.621 118.822 103.287 118.622 103.179 118.851Z" fill="#F364AB"/>
<path d="M100.756 119.394C99.637 121.62 97.4567 122.907 95.4323 124.205C95.2324 124.334 95.4103 124.645 95.6193 124.526C97.7519 123.301 99.9579 121.862 101.076 119.582C101.181 119.368 100.864 119.179 100.756 119.394Z" fill="#F364AB"/>
<path d="M44.3307 136.532C41.6847 135.618 38.9561 134.604 37.0197 132.49C36.8107 132.261 36.5063 132.591 36.6878 132.822C38.5123 135.156 41.4884 136.128 44.1968 137.019C44.5067 137.122 44.6369 136.638 44.3307 136.532Z" fill="#F364AB"/>
<path d="M46.4043 136.059C44.2515 135.695 42.3261 134.592 40.8096 133.036C40.5988 132.819 40.298 133.136 40.4832 133.362C41.9227 135.104 44.0443 136.219 46.2612 136.577C46.5986 136.632 46.7453 136.118 46.4043 136.059Z" fill="#F364AB"/>
<path d="M47.9979 135.546C45.7186 135.042 43.7841 133.731 42.2621 131.987C42.0897 131.789 41.7358 132.053 41.8935 132.271C43.2981 134.233 45.5224 135.541 47.8604 136.043C48.185 136.113 48.3243 135.618 47.9979 135.546Z" fill="#F364AB"/>
<path d="M49.7669 134.963C47.9607 134.562 46.4387 133.526 45.2322 132.145C45.0598 131.949 44.7169 132.209 44.8673 132.427C45.962 134.022 47.7443 135.093 49.6202 135.499C49.9686 135.574 50.1172 135.042 49.7669 134.963Z" fill="#F364AB"/>
<path d="M51.9359 134.222C50.2544 133.94 48.6957 133.214 47.3351 132.194C47.1169 132.031 46.84 132.392 47.0436 132.572C48.3748 133.748 50.0362 134.485 51.7855 134.769C52.1431 134.828 52.2971 134.283 51.9359 134.222Z" fill="#F364AB"/>
</svg>
