<svg width="55" height="49" viewBox="0 0 55 49" fill="none" xmlns="http://www.w3.org/2000/svg">
<g filter="url(#filter0_d_1_8094)">
<path d="M27.27 9.73527L27.481 10.0472L27.6866 9.73166C31.2577 4.2498 37.591 2.6877 42.2051 3.59532C45.3652 4.22558 47.495 5.79113 48.8383 7.72232C50.1851 9.65855 50.75 11.9759 50.75 14.1133C50.75 19.386 46.9287 25.8889 39.2249 33.4125L39.2247 33.4126C36.39 36.1861 33.537 38.5901 31.3836 40.306C30.3071 41.1638 29.4059 41.8493 28.7698 42.3225C28.4518 42.5591 28.2002 42.7427 28.0262 42.8681C27.9392 42.9308 27.8717 42.9789 27.8252 43.0117C27.802 43.0281 27.7863 43.039 27.7765 43.0459C27.7633 43.0551 27.7609 43.0568 27.7656 43.054L27.7449 43.0661L27.7269 43.0818C27.6986 43.1065 27.6074 43.1406 27.5001 43.1406C27.4016 43.1406 27.2937 43.1102 27.2294 43.0656C26.7621 42.7374 21.0039 38.6554 15.365 33.0625C12.5455 30.2659 9.76219 27.0977 7.68528 23.8379C5.60612 20.5745 4.25 17.2427 4.25 14.1133C4.25 8.62438 7.46294 4.59406 12.6587 3.51463C18.1462 2.39182 24.0086 4.91392 27.27 9.73527Z" fill="#FE69AF" stroke="#FE69AF" stroke-width="0.5"/>
<path d="M36.8599 20.9843C36.2212 20.8538 35.5778 20.7445 34.9303 20.6597C34.8852 20.6539 34.8399 20.6492 34.7948 20.6437C34.9131 19.9974 34.9108 19.3261 34.8233 18.6716C34.7733 18.2729 34.6841 17.8803 34.578 17.4929C34.4662 17.1055 34.3339 16.7303 34.1636 16.3554L34.1232 16.2662L34.0256 16.2752C33.6176 16.3127 33.2264 16.3813 32.8349 16.4743C32.4458 16.5707 32.061 16.6873 31.6902 16.8416C31.3188 16.993 30.9605 17.1787 30.6269 17.4013C30.4609 17.5138 30.3022 17.6367 30.152 17.7681C30.1064 17.8088 30.0639 17.8524 30.0204 17.8954C29.9111 17.7286 29.8004 17.5629 29.6867 17.3993C29.3142 16.8643 28.9151 16.3496 28.5033 15.846C28.0889 15.3426 27.6667 14.8547 27.2127 14.3763L27.0023 14.1543L26.7974 14.3818C26.3551 14.8733 25.9454 15.3746 25.544 15.8907C25.145 16.4066 24.7602 16.9343 24.4005 17.4804C24.32 17.6039 24.2409 17.7283 24.1625 17.8535C24.1354 17.8294 24.1099 17.8035 24.082 17.78C23.9282 17.6527 23.7663 17.5341 23.5972 17.4263C23.2578 17.213 22.8945 17.0372 22.519 16.8959C22.1441 16.7518 21.7562 16.6457 21.3647 16.56C20.9709 16.478 20.578 16.4202 20.1691 16.3938L20.0712 16.3874L20.0331 16.4775C19.873 16.8567 19.7515 17.2357 19.6501 17.626C19.5545 18.016 19.476 18.4109 19.4374 18.8111C19.3702 19.444 19.383 20.0904 19.5057 20.712C19.4173 20.7248 19.329 20.7367 19.2409 20.7506C18.5958 20.8532 17.9558 20.9802 17.3208 21.1281C16.6847 21.2772 16.0581 21.4406 15.4286 21.6411L15.1488 21.7303L15.2583 22.0041C15.5028 22.6158 15.7692 23.204 16.0532 23.7907C16.3377 24.3755 16.6396 24.9529 16.968 25.5164C17.2985 26.079 17.6521 26.6295 18.0407 27.1592C18.2383 27.422 18.4382 27.6835 18.6574 27.9317C18.7629 28.0587 18.8797 28.1776 18.9913 28.3002C19.1101 28.4173 19.2235 28.5385 19.3502 28.6492C19.594 28.8782 19.8631 29.0857 20.1529 29.2679C20.2956 29.3621 20.4513 29.4391 20.6056 29.5173C20.7634 29.583 20.9195 29.653 21.0843 29.7027C21.4101 29.8091 21.7501 29.8779 22.0933 29.9009C22.4368 29.9224 22.782 29.898 23.1171 29.8346C23.7896 29.7071 24.4133 29.4191 24.9707 29.0558C25.2493 28.8724 25.5126 28.669 25.762 28.4504C26.0105 28.2281 26.2435 28.0017 26.4615 27.735L26.6205 27.5405L26.3947 27.442C25.8137 27.1886 25.1999 27.0122 24.5745 26.93C23.9491 26.8515 23.3142 26.8561 22.696 26.9564L22.4644 26.9945C22.3877 27.0093 22.3115 27.027 22.2351 27.0433C22.0817 27.0732 21.9323 27.1186 21.7815 27.1584C21.6324 27.204 21.4842 27.2525 21.338 27.3051C21.1933 27.3621 21.0465 27.4135 20.9056 27.4795C20.6187 27.601 20.3476 27.7437 20.066 27.8666C19.8931 27.9427 19.7158 28.0102 19.5347 28.0654C19.4865 28.0166 19.4388 27.9672 19.39 27.9189C19.2857 27.8024 19.1764 27.6911 19.0767 27.5696C18.8704 27.3336 18.6803 27.0814 18.4917 26.8282C18.1206 26.3165 17.7797 25.7797 17.4606 25.2293C16.873 24.2159 16.3435 23.1552 15.8872 22.0776C17.009 21.7335 18.1624 21.4438 19.3214 21.2397C19.9515 21.1322 20.5841 21.043 21.2188 20.9959C21.7036 20.9634 22.1909 20.9494 22.6722 20.9796C22.669 20.9907 22.6655 21.0017 22.6623 21.0128C22.6141 21.172 22.5806 21.3371 22.544 21.5004C22.517 21.6667 22.4839 21.8314 22.4731 22.0014C22.4531 22.1691 22.4551 22.3418 22.456 22.5112C22.4661 22.6792 22.4754 22.8471 22.5039 23.0136C22.5545 23.3464 22.635 23.6768 22.7663 23.9884C22.8954 24.3002 23.0636 24.5952 23.2674 24.8611C23.6774 25.3932 24.2156 25.8064 24.7992 26.1035C25.3848 26.3984 26.0137 26.5978 26.6556 26.6826C26.3394 26.6141 26.0331 26.5106 25.7353 26.3903C25.438 26.2691 25.1485 26.1299 24.8762 25.9642C24.3319 25.635 23.8437 25.213 23.4952 24.6954C23.3197 24.4385 23.1776 24.161 23.0735 23.8701C22.9669 23.5798 22.9082 23.2737 22.8765 22.9666C22.8573 22.8131 22.8579 22.6576 22.8527 22.503C22.8579 22.3496 22.8602 22.1985 22.8843 22.0456C22.8989 21.893 22.9355 21.7413 22.9648 21.5899C23.0047 21.4394 23.0401 21.2883 23.091 21.1398C23.1037 21.1005 23.1177 21.0616 23.1311 21.0227C23.2813 21.0389 23.4289 21.0662 23.5772 21.0912C23.7283 21.1267 23.8823 21.156 24.0285 21.2057C24.1787 21.247 24.3188 21.3072 24.4618 21.3662C24.6016 21.4345 24.7437 21.4998 24.8762 21.5818C25.4156 21.8922 25.8779 22.3336 26.2011 22.8707C26.526 23.4071 26.7082 24.0288 26.7806 24.6623C26.846 25.297 26.8222 25.9486 26.6867 26.5806C26.8672 25.9596 26.943 25.3048 26.9117 24.6518C26.8791 23.9997 26.7242 23.3415 26.4063 22.7541C26.2485 22.4606 26.0512 22.1869 25.8219 21.9422C25.5931 21.696 25.3258 21.4888 25.0445 21.3077C24.905 21.2142 24.7562 21.138 24.6085 21.059C24.456 20.9884 24.3008 20.9157 24.1409 20.8646C23.9829 20.8044 23.8198 20.7663 23.6582 20.7222C23.5292 20.6954 23.4002 20.6658 23.2706 20.6443C23.6664 19.6382 24.2345 18.6882 24.8506 17.7823C25.5115 16.8143 26.2395 15.8779 27.0131 15.0003C27.8088 15.8532 28.5589 16.7666 29.2456 17.7123C29.9134 18.6376 30.5307 19.6117 30.9582 20.653C30.8085 20.6789 30.6606 20.7172 30.5124 20.7521C30.3519 20.8006 30.1901 20.8433 30.0337 20.9079C29.8753 20.9631 29.7222 21.0404 29.5716 21.1151C29.4263 21.1982 29.2796 21.2781 29.1427 21.3755C28.8666 21.5644 28.6048 21.7785 28.383 22.0311C28.1604 22.2822 27.9709 22.5612 27.8213 22.859C27.5196 23.4551 27.3827 24.1171 27.3682 24.7701C27.3546 25.424 27.4484 26.0761 27.646 26.6922C27.4932 26.0642 27.4513 25.4135 27.4993 24.7771C27.5542 24.1418 27.7193 23.5155 28.0294 22.9701C28.3377 22.4246 28.7876 21.9703 29.3185 21.6454C29.4484 21.56 29.5888 21.4908 29.7268 21.4185C29.8681 21.3557 30.0067 21.2915 30.1558 21.2461C30.3005 21.1924 30.4537 21.159 30.6036 21.1194C30.7571 21.0892 30.9093 21.0558 31.0654 21.0357C31.0782 21.0337 31.091 21.0322 31.1038 21.0305C31.2061 21.3176 31.2836 21.6111 31.3316 21.9067C31.3601 22.0581 31.3679 22.2095 31.3795 22.3615C31.3778 22.515 31.3839 22.6696 31.3679 22.8224C31.3444 23.1287 31.2854 23.4324 31.1866 23.7245C31.0866 24.0163 30.9471 24.2947 30.7777 24.5559C30.4403 25.0808 29.9744 25.5237 29.456 25.8916C29.1959 26.0753 28.9207 26.2389 28.6362 26.3865C28.3514 26.5333 28.0575 26.6667 27.7518 26.7692C28.3787 26.6146 28.9823 26.3586 29.5423 26.0235C30.1003 25.6861 30.6115 25.252 31.0076 24.7146C31.2046 24.4458 31.3688 24.1505 31.4935 23.8378C31.6164 23.5245 31.6975 23.1944 31.7393 22.8602C31.764 22.6928 31.7681 22.5248 31.7745 22.3563C31.7684 22.1866 31.7643 22.0157 31.7393 21.8489C31.7015 21.5519 31.6367 21.2612 31.5519 20.9785C32.0172 20.939 32.4891 20.9404 32.959 20.959C33.5946 20.9887 34.2299 21.0604 34.8623 21.1508C36.0262 21.3229 37.1872 21.5806 38.3179 21.8939C37.8913 22.9837 37.3912 24.0587 36.8317 25.0878C36.5278 25.6469 36.2017 26.1927 35.8448 26.7143C35.6635 26.9724 35.4801 27.2299 35.2805 27.4714C35.1843 27.5958 35.0782 27.71 34.9771 27.8291C34.9297 27.8788 34.8832 27.9294 34.8364 27.9797C34.6539 27.9294 34.4749 27.8669 34.2999 27.7954C34.0154 27.68 33.7402 27.5452 33.4502 27.4316C33.3075 27.3697 33.1596 27.322 33.0131 27.2691C32.8655 27.2206 32.7161 27.1761 32.5658 27.1345C32.4141 27.0988 32.2633 27.0575 32.1093 27.032C32.0326 27.018 31.9558 27.002 31.8788 26.9895L31.6463 26.9579C31.0259 26.8747 30.3909 26.8875 29.7678 26.9828C29.145 27.0822 28.5362 27.2752 27.9625 27.5446L27.7393 27.6492L27.9035 27.8393C28.1287 28.1 28.3679 28.3197 28.6225 28.5353C28.8777 28.7469 29.1465 28.943 29.4301 29.1186C29.9974 29.4664 30.6286 29.7373 31.3046 29.8463C31.6414 29.9006 31.9872 29.9151 32.3299 29.8843C32.6725 29.8521 33.0105 29.7739 33.3331 29.6585C33.4964 29.6045 33.6504 29.5304 33.8065 29.46C33.9585 29.3778 34.1122 29.2964 34.2523 29.1985C34.5368 29.0084 34.8001 28.7937 35.0375 28.558C35.161 28.4438 35.2709 28.3194 35.3865 28.1991C35.4946 28.0735 35.6083 27.9515 35.7103 27.8216C35.9224 27.5673 36.1151 27.3005 36.3054 27.0323C36.6792 26.492 37.018 25.932 37.3328 25.3606C37.6455 24.7881 37.9314 24.2028 38.2 23.6103C38.4676 23.016 38.7178 22.4208 38.9454 21.8024L39.0471 21.5257L38.7649 21.444C38.1308 21.2618 37.4999 21.1159 36.8599 20.9843ZM20.091 27.9282C20.383 27.8265 20.6652 27.6972 20.9526 27.5958C21.5254 27.383 22.1226 27.2453 22.7248 27.1805C23.3272 27.1122 23.9355 27.1421 24.5283 27.2366C25.034 27.3229 25.526 27.4743 25.9936 27.678C25.837 27.8381 25.667 27.9942 25.4943 28.1389C25.2534 28.3386 25.0003 28.5231 24.7358 28.6867C24.2066 29.0125 23.628 29.2525 23.0302 29.3545C22.7318 29.406 22.4287 29.4217 22.129 29.3981C21.8294 29.3729 21.5341 29.3078 21.2496 29.2095C21.1061 29.1642 20.9689 29.0991 20.83 29.0392C20.6983 28.9686 20.5658 28.9018 20.4406 28.8155C20.1874 28.651 19.948 28.4577 19.7225 28.2456C19.6652 28.195 19.6103 28.1412 19.5562 28.0866C19.7373 28.0447 19.916 27.9907 20.091 27.9282ZM23.4054 19.1755C23.1747 19.6292 22.9628 20.0956 22.7966 20.5824C22.2616 20.5272 21.7254 20.5263 21.1933 20.5472C20.6492 20.5722 20.1084 20.6271 19.5713 20.703C19.5536 20.4719 19.5452 20.2409 19.5519 20.0102C19.5577 19.6178 19.5981 19.2272 19.6585 18.841C19.7222 18.4551 19.8038 18.0723 19.9119 17.6969C20.0084 17.3545 20.1215 17.011 20.2566 16.6879C20.6062 16.7108 20.9631 16.7614 21.3118 16.8262C21.6957 16.8945 22.0735 16.9921 22.4458 17.1072C22.8166 17.2264 23.1808 17.3688 23.5275 17.5487C23.7024 17.6361 23.8695 17.7379 24.0346 17.8442C24.066 17.8651 24.0962 17.8884 24.1273 17.9102C23.8713 18.3211 23.6283 18.7422 23.4054 19.1755ZM34.7373 20.637C34.1529 20.5667 33.5644 20.5205 32.973 20.5094C32.4577 20.5036 31.9396 20.5179 31.4234 20.5818C31.236 20.052 30.9919 19.5484 30.7263 19.0604C30.5153 18.6786 30.288 18.3072 30.0509 17.943C30.1006 17.905 30.1497 17.8663 30.2008 17.8303C30.363 17.7195 30.5272 17.6132 30.6995 17.5211C31.0413 17.3319 31.4013 17.1796 31.7687 17.0503C32.1375 16.925 32.5127 16.8169 32.8945 16.7381C33.2415 16.6637 33.5966 16.6036 33.9457 16.5707C34.0898 16.8901 34.2122 17.2304 34.3179 17.5699C34.4362 17.9424 34.5283 18.3229 34.6025 18.7068C34.6734 19.0912 34.7245 19.4804 34.7411 19.8724C34.7562 20.1267 34.7524 20.3816 34.7373 20.637ZM34.6545 28.1648C34.4348 28.383 34.2008 28.5827 33.9524 28.7541C33.8297 28.8436 33.6989 28.9143 33.5693 28.9884C33.4322 29.052 33.297 29.1209 33.1546 29.1703C32.8727 29.2764 32.5795 29.3496 32.2807 29.383C31.982 29.4147 31.6786 29.4074 31.3787 29.3641C30.7783 29.2784 30.1933 29.0546 29.6553 28.7434C29.3865 28.587 29.1285 28.4095 28.882 28.2168C28.7056 28.077 28.5315 27.9256 28.3702 27.7698C28.8323 27.5533 29.32 27.3885 29.823 27.2883C30.413 27.1776 31.0201 27.1308 31.6242 27.1825C32.2278 27.2307 32.8288 27.3522 33.4072 27.549C33.6972 27.6425 33.9829 27.764 34.2775 27.8576C34.4542 27.9154 34.6341 27.9642 34.8163 28.0014C34.7637 28.0575 34.7103 28.1128 34.6545 28.1648Z" fill="white"/>
</g>
<defs>
<filter id="filter0_d_1_8094" x="0" y="0" width="55" height="48.3906" filterUnits="userSpaceOnUse" color-interpolation-filters="sRGB">
<feFlood flood-opacity="0" result="BackgroundImageFix"/>
<feColorMatrix in="SourceAlpha" type="matrix" values="0 0 0 0 0 0 0 0 0 0 0 0 0 0 0 0 0 0 127 0" result="hardAlpha"/>
<feOffset dy="1"/>
<feGaussianBlur stdDeviation="2"/>
<feComposite in2="hardAlpha" operator="out"/>
<feColorMatrix type="matrix" values="0 0 0 0 0.2375 0 0 0 0 0.2375 0 0 0 0 0.2375 0 0 0 0.25 0"/>
<feBlend mode="normal" in2="BackgroundImageFix" result="effect1_dropShadow_1_8094"/>
<feBlend mode="normal" in="SourceGraphic" in2="effect1_dropShadow_1_8094" result="shape"/>
</filter>
</defs>
</svg>
