<svg width="197" height="376" viewBox="0 0 197 376" fill="none" xmlns="http://www.w3.org/2000/svg">
<rect x="20.373" y="137.406" width="253.628" height="238.594" fill="#FFE9F3"/>
<path d="M274.001 138.046C274.001 122.379 270.721 106.866 264.348 92.3927C257.975 77.9189 248.634 64.7677 236.858 53.69C225.083 42.6123 211.103 33.8249 195.717 27.8297C180.331 21.8345 163.841 18.7488 147.187 18.7488C130.534 18.7488 114.043 21.8345 98.6575 27.8297C83.2717 33.8249 69.2918 42.6123 57.516 53.69C45.7403 64.7677 36.3992 77.9189 30.0262 92.3927C23.6532 106.866 20.373 122.379 20.373 138.046L147.187 138.046H274.001Z" fill="#FFE9F3"/>
<mask id="path-3-inside-1_1_7479" fill="white">
<path fill-rule="evenodd" clip-rule="evenodd" d="M0 119.297V118.659H0.00181437C0.0896617 103.209 3.36669 87.9211 9.65315 73.6439C16.0262 59.1701 25.3672 46.019 37.143 34.9412C48.9188 23.8635 62.8987 15.0762 78.2844 9.08093C93.6702 3.0857 110.161 0 126.814 0C143.468 0 159.958 3.0857 175.344 9.08092C190.73 15.0761 204.709 23.8635 216.485 34.9412C228.261 46.0189 237.602 59.1701 243.975 73.6439C250.262 87.9211 253.539 103.209 253.626 118.659H253.628V119.297V357.252H0V119.297Z"/>
</mask>
<path d="M0 118.659V117.659H-1V118.659H0ZM0.00181437 118.659V119.659H0.996144L1.0018 118.664L0.00181437 118.659ZM9.65315 73.6439L8.73794 73.2409L9.65315 73.6439ZM37.143 34.9412L37.8282 35.6696L37.143 34.9412ZM78.2844 9.08093L77.9214 8.14917L78.2844 9.08093ZM175.344 9.08092L175.707 8.14916L175.344 9.08092ZM216.485 34.9412L217.17 34.2128L216.485 34.9412ZM243.975 73.6439L244.89 73.2409L243.975 73.6439ZM253.626 118.659L252.626 118.664L252.632 119.659H253.626V118.659ZM253.628 118.659H254.628V117.659H253.628V118.659ZM253.628 357.252V358.252H254.628V357.252H253.628ZM0 357.252H-1V358.252H0V357.252ZM1 119.297V118.659H-1V119.297H1ZM0 119.659H0.00181437V117.659H0V119.659ZM8.73794 73.2409C2.39687 87.6421 -0.909537 103.066 -0.998169 118.653L1.0018 118.664C1.08886 103.353 4.33651 88.2 10.5684 74.0469L8.73794 73.2409ZM36.4578 34.2129C24.5865 45.3804 15.1662 58.6416 8.73794 73.2409L10.5684 74.0469C16.8861 59.6987 26.1479 46.6575 37.8282 35.6696L36.4578 34.2129ZM77.9214 8.14917C62.4188 14.1899 48.3289 23.0454 36.4578 34.2129L37.8282 35.6696C49.5086 24.6816 63.3785 15.9624 78.6475 10.0127L77.9214 8.14917ZM126.814 -1C110.038 -1 93.4239 2.10845 77.9214 8.14917L78.6475 10.0127C93.9166 4.06295 110.284 1 126.814 1V-1ZM175.707 8.14916C160.204 2.10845 143.591 -1 126.814 -1V1C143.344 1 159.712 4.06295 174.981 10.0127L175.707 8.14916ZM217.17 34.2128C205.299 23.0454 191.209 14.1899 175.707 8.14916L174.981 10.0127C190.25 15.9624 204.12 24.6816 215.8 35.6696L217.17 34.2128ZM244.89 73.2409C238.462 58.6416 229.042 45.3804 217.17 34.2128L215.8 35.6696C227.48 46.6575 236.742 59.6987 243.06 74.0469L244.89 73.2409ZM254.626 118.653C254.538 103.066 251.231 87.6421 244.89 73.2409L243.06 74.0469C249.292 88.2 252.539 103.353 252.626 118.664L254.626 118.653ZM253.626 119.659H253.628V117.659H253.626V119.659ZM252.628 118.659V119.297H254.628V118.659H252.628ZM252.628 119.297V357.252H254.628V119.297H252.628ZM253.628 356.252H0V358.252H253.628V356.252ZM1 357.252V119.297H-1V357.252H1Z" fill="#F972B1" fill-opacity="0.7" mask="url(#path-3-inside-1_1_7479)"/>
<rect x="48.8926" y="142.676" width="204.736" height="203.118" fill="#FFFDFF"/>
<path d="M253.629 143.219C253.629 129.882 250.981 116.676 245.836 104.354C240.692 92.0326 233.151 80.8369 223.646 71.4063C214.14 61.9757 202.855 54.4949 190.435 49.3911C178.015 44.2873 164.704 41.6604 151.261 41.6604C137.817 41.6604 124.506 44.2873 112.086 49.3911C99.6662 54.4949 88.3812 61.9757 78.8755 71.4063C69.3697 80.8369 61.8294 92.0326 56.6849 104.354C51.5404 116.676 48.8926 129.882 48.8926 143.219L151.261 143.219H253.629Z" fill="#FFFDFF"/>
</svg>
